<mxfile host="Electron" modified="2023-12-01T06:36:43.900Z" agent="Mozilla/5.0 (Macintosh; Intel Mac OS X 10_15_7) AppleWebKit/537.36 (KHTML, like Gecko) draw.io/21.6.8 Chrome/114.0.5735.289 Electron/25.5.0 Safari/537.36" etag="9Eaf59zLBSfmPjCSPZso" version="21.6.8" type="device">
  <diagram name="第 1 页" id="Biv2wUYO_ls7cxyVR3xO">
    <mxGraphModel dx="2947" dy="2122" grid="1" gridSize="10" guides="1" tooltips="1" connect="1" arrows="1" fold="1" page="1" pageScale="1" pageWidth="827" pageHeight="1169" math="0" shadow="0">
      <root>
        <mxCell id="0" />
        <mxCell id="1" parent="0" />
        <mxCell id="dvMq7z_w7fG76Abtl-HF-437" value="" style="rounded=1;whiteSpace=wrap;html=1;fillColor=none;sketch=1;curveFitting=1;jiggle=2;dashed=1;dashPattern=8 8;fontFamily=Comic Sans MS;" parent="1" vertex="1">
          <mxGeometry x="-880" y="-395" width="1720" height="1085" as="geometry" />
        </mxCell>
        <mxCell id="dvMq7z_w7fG76Abtl-HF-14" value="&lt;font style=&quot;font-size: 18px;&quot;&gt;Users&lt;/font&gt;" style="shape=table;startSize=30;container=1;collapsible=1;childLayout=tableLayout;fixedRows=1;rowLines=0;fontStyle=1;align=center;resizeLast=1;html=1;sketch=1;curveFitting=1;jiggle=2;shadow=0;strokeColor=#666666;fontFamily=Comic Sans MS;fillColor=#f5f5f5;fontColor=#333333;" parent="1" vertex="1">
          <mxGeometry x="454" y="-40" width="350" height="240" as="geometry" />
        </mxCell>
        <mxCell id="dvMq7z_w7fG76Abtl-HF-15" value="" style="shape=tableRow;horizontal=0;startSize=0;swimlaneHead=0;swimlaneBody=0;fillColor=none;collapsible=0;dropTarget=0;points=[[0,0.5],[1,0.5]];portConstraint=eastwest;top=0;left=0;right=0;bottom=1;sketch=1;curveFitting=1;jiggle=2;shadow=0;strokeColor=#666666;fontFamily=Comic Sans MS;" parent="dvMq7z_w7fG76Abtl-HF-14" vertex="1">
          <mxGeometry y="30" width="350" height="30" as="geometry" />
        </mxCell>
        <mxCell id="dvMq7z_w7fG76Abtl-HF-16" value="" style="shape=partialRectangle;connectable=0;fillColor=none;top=0;left=0;bottom=0;right=0;fontStyle=1;overflow=hidden;whiteSpace=wrap;html=1;sketch=1;curveFitting=1;jiggle=2;shadow=0;strokeColor=#666666;fontFamily=Comic Sans MS;fontSize=15;" parent="dvMq7z_w7fG76Abtl-HF-15" vertex="1">
          <mxGeometry width="30" height="30" as="geometry">
            <mxRectangle width="30" height="30" as="alternateBounds" />
          </mxGeometry>
        </mxCell>
        <mxCell id="dvMq7z_w7fG76Abtl-HF-17" value="&lt;font style=&quot;font-size: 15px;&quot;&gt;Field&lt;/font&gt;" style="shape=partialRectangle;connectable=0;fillColor=none;top=0;left=0;bottom=0;right=0;align=left;spacingLeft=6;fontStyle=5;overflow=hidden;whiteSpace=wrap;html=1;sketch=1;curveFitting=1;jiggle=2;shadow=0;strokeColor=#666666;fontFamily=Comic Sans MS;fontSize=15;" parent="dvMq7z_w7fG76Abtl-HF-15" vertex="1">
          <mxGeometry x="30" width="138" height="30" as="geometry">
            <mxRectangle width="138" height="30" as="alternateBounds" />
          </mxGeometry>
        </mxCell>
        <mxCell id="dvMq7z_w7fG76Abtl-HF-71" value="&lt;font style=&quot;font-size: 15px;&quot;&gt;Type&lt;/font&gt;" style="shape=partialRectangle;connectable=0;fillColor=none;top=0;left=0;bottom=0;right=0;align=left;spacingLeft=6;fontStyle=5;overflow=hidden;whiteSpace=wrap;html=1;sketch=1;curveFitting=1;jiggle=2;shadow=0;strokeColor=#666666;fontFamily=Comic Sans MS;fontSize=15;" parent="dvMq7z_w7fG76Abtl-HF-15" vertex="1">
          <mxGeometry x="168" width="112" height="30" as="geometry">
            <mxRectangle width="112" height="30" as="alternateBounds" />
          </mxGeometry>
        </mxCell>
        <mxCell id="dvMq7z_w7fG76Abtl-HF-79" value="&lt;font style=&quot;font-size: 15px;&quot;&gt;Nullable&lt;/font&gt;" style="shape=partialRectangle;connectable=0;fillColor=none;top=0;left=0;bottom=0;right=0;align=left;spacingLeft=6;fontStyle=5;overflow=hidden;whiteSpace=wrap;html=1;sketch=1;curveFitting=1;jiggle=2;shadow=0;strokeColor=#666666;fontFamily=Comic Sans MS;fontSize=15;" parent="dvMq7z_w7fG76Abtl-HF-15" vertex="1">
          <mxGeometry x="280" width="70" height="30" as="geometry">
            <mxRectangle width="70" height="30" as="alternateBounds" />
          </mxGeometry>
        </mxCell>
        <mxCell id="dvMq7z_w7fG76Abtl-HF-18" value="" style="shape=tableRow;horizontal=0;startSize=0;swimlaneHead=0;swimlaneBody=0;fillColor=none;collapsible=0;dropTarget=0;points=[[0,0.5],[1,0.5]];portConstraint=eastwest;top=0;left=0;right=0;bottom=0;sketch=1;curveFitting=1;jiggle=2;shadow=0;strokeColor=#666666;fontFamily=Comic Sans MS;" parent="dvMq7z_w7fG76Abtl-HF-14" vertex="1">
          <mxGeometry y="60" width="350" height="30" as="geometry" />
        </mxCell>
        <mxCell id="dvMq7z_w7fG76Abtl-HF-19" value="&lt;b style=&quot;font-size: 15px;&quot;&gt;&lt;font style=&quot;font-size: 15px;&quot;&gt;PK&lt;/font&gt;&lt;/b&gt;" style="shape=partialRectangle;connectable=0;fillColor=none;top=0;left=0;bottom=0;right=0;editable=1;overflow=hidden;whiteSpace=wrap;html=1;sketch=1;curveFitting=1;jiggle=2;shadow=0;strokeColor=#666666;fontFamily=Comic Sans MS;fontSize=15;" parent="dvMq7z_w7fG76Abtl-HF-18" vertex="1">
          <mxGeometry width="30" height="30" as="geometry">
            <mxRectangle width="30" height="30" as="alternateBounds" />
          </mxGeometry>
        </mxCell>
        <mxCell id="dvMq7z_w7fG76Abtl-HF-20" value="&lt;b style=&quot;font-size: 15px;&quot;&gt;&lt;font style=&quot;font-size: 15px;&quot;&gt;id&lt;/font&gt;&lt;/b&gt;" style="shape=partialRectangle;connectable=0;fillColor=none;top=0;left=0;bottom=0;right=0;align=left;spacingLeft=6;overflow=hidden;whiteSpace=wrap;html=1;sketch=1;curveFitting=1;jiggle=2;shadow=0;strokeColor=#666666;fontFamily=Comic Sans MS;fontSize=15;" parent="dvMq7z_w7fG76Abtl-HF-18" vertex="1">
          <mxGeometry x="30" width="138" height="30" as="geometry">
            <mxRectangle width="138" height="30" as="alternateBounds" />
          </mxGeometry>
        </mxCell>
        <mxCell id="dvMq7z_w7fG76Abtl-HF-72" value="&lt;font style=&quot;font-size: 15px;&quot;&gt;int&lt;/font&gt;" style="shape=partialRectangle;connectable=0;fillColor=none;top=0;left=0;bottom=0;right=0;align=left;spacingLeft=6;overflow=hidden;whiteSpace=wrap;html=1;sketch=1;curveFitting=1;jiggle=2;shadow=0;strokeColor=#666666;fontFamily=Comic Sans MS;fontSize=15;" parent="dvMq7z_w7fG76Abtl-HF-18" vertex="1">
          <mxGeometry x="168" width="112" height="30" as="geometry">
            <mxRectangle width="112" height="30" as="alternateBounds" />
          </mxGeometry>
        </mxCell>
        <mxCell id="dvMq7z_w7fG76Abtl-HF-80" value="&lt;font style=&quot;font-size: 15px;&quot;&gt;no&lt;/font&gt;" style="shape=partialRectangle;connectable=0;fillColor=none;top=0;left=0;bottom=0;right=0;align=left;spacingLeft=6;overflow=hidden;whiteSpace=wrap;html=1;sketch=1;curveFitting=1;jiggle=2;shadow=0;strokeColor=#666666;fontFamily=Comic Sans MS;fontSize=15;" parent="dvMq7z_w7fG76Abtl-HF-18" vertex="1">
          <mxGeometry x="280" width="70" height="30" as="geometry">
            <mxRectangle width="70" height="30" as="alternateBounds" />
          </mxGeometry>
        </mxCell>
        <mxCell id="dvMq7z_w7fG76Abtl-HF-21" value="" style="shape=tableRow;horizontal=0;startSize=0;swimlaneHead=0;swimlaneBody=0;fillColor=none;collapsible=0;dropTarget=0;points=[[0,0.5],[1,0.5]];portConstraint=eastwest;top=0;left=0;right=0;bottom=0;sketch=1;curveFitting=1;jiggle=2;shadow=0;strokeColor=#666666;fontFamily=Comic Sans MS;" parent="dvMq7z_w7fG76Abtl-HF-14" vertex="1">
          <mxGeometry y="90" width="350" height="30" as="geometry" />
        </mxCell>
        <mxCell id="dvMq7z_w7fG76Abtl-HF-22" value="◇" style="shape=partialRectangle;connectable=0;fillColor=none;top=0;left=0;bottom=0;right=0;editable=1;overflow=hidden;whiteSpace=wrap;html=1;sketch=1;curveFitting=1;jiggle=2;shadow=0;strokeColor=#666666;fontFamily=Comic Sans MS;fontSize=15;" parent="dvMq7z_w7fG76Abtl-HF-21" vertex="1">
          <mxGeometry width="30" height="30" as="geometry">
            <mxRectangle width="30" height="30" as="alternateBounds" />
          </mxGeometry>
        </mxCell>
        <mxCell id="dvMq7z_w7fG76Abtl-HF-23" value="&lt;font style=&quot;font-size: 15px;&quot;&gt;username&lt;/font&gt;" style="shape=partialRectangle;connectable=0;fillColor=none;top=0;left=0;bottom=0;right=0;align=left;spacingLeft=6;overflow=hidden;whiteSpace=wrap;html=1;sketch=1;curveFitting=1;jiggle=2;shadow=0;strokeColor=#666666;fontFamily=Comic Sans MS;fontSize=15;" parent="dvMq7z_w7fG76Abtl-HF-21" vertex="1">
          <mxGeometry x="30" width="138" height="30" as="geometry">
            <mxRectangle width="138" height="30" as="alternateBounds" />
          </mxGeometry>
        </mxCell>
        <mxCell id="dvMq7z_w7fG76Abtl-HF-73" value="&lt;font style=&quot;font-size: 15px;&quot;&gt;varchar(100)&lt;/font&gt;" style="shape=partialRectangle;connectable=0;fillColor=none;top=0;left=0;bottom=0;right=0;align=left;spacingLeft=6;overflow=hidden;whiteSpace=wrap;html=1;sketch=1;curveFitting=1;jiggle=2;shadow=0;strokeColor=#666666;fontFamily=Comic Sans MS;fontSize=15;" parent="dvMq7z_w7fG76Abtl-HF-21" vertex="1">
          <mxGeometry x="168" width="112" height="30" as="geometry">
            <mxRectangle width="112" height="30" as="alternateBounds" />
          </mxGeometry>
        </mxCell>
        <mxCell id="dvMq7z_w7fG76Abtl-HF-81" value="&lt;font style=&quot;font-size: 15px;&quot;&gt;no&lt;/font&gt;" style="shape=partialRectangle;connectable=0;fillColor=none;top=0;left=0;bottom=0;right=0;align=left;spacingLeft=6;overflow=hidden;whiteSpace=wrap;html=1;sketch=1;curveFitting=1;jiggle=2;shadow=0;strokeColor=#666666;fontFamily=Comic Sans MS;fontSize=15;" parent="dvMq7z_w7fG76Abtl-HF-21" vertex="1">
          <mxGeometry x="280" width="70" height="30" as="geometry">
            <mxRectangle width="70" height="30" as="alternateBounds" />
          </mxGeometry>
        </mxCell>
        <mxCell id="dvMq7z_w7fG76Abtl-HF-24" value="" style="shape=tableRow;horizontal=0;startSize=0;swimlaneHead=0;swimlaneBody=0;fillColor=none;collapsible=0;dropTarget=0;points=[[0,0.5],[1,0.5]];portConstraint=eastwest;top=0;left=0;right=0;bottom=0;sketch=1;curveFitting=1;jiggle=2;shadow=0;strokeColor=#666666;fontFamily=Comic Sans MS;" parent="dvMq7z_w7fG76Abtl-HF-14" vertex="1">
          <mxGeometry y="120" width="350" height="30" as="geometry" />
        </mxCell>
        <mxCell id="dvMq7z_w7fG76Abtl-HF-25" value="◇" style="shape=partialRectangle;connectable=0;fillColor=none;top=0;left=0;bottom=0;right=0;editable=1;overflow=hidden;whiteSpace=wrap;html=1;sketch=1;curveFitting=1;jiggle=2;shadow=0;strokeColor=#666666;fontFamily=Comic Sans MS;fontSize=15;" parent="dvMq7z_w7fG76Abtl-HF-24" vertex="1">
          <mxGeometry width="30" height="30" as="geometry">
            <mxRectangle width="30" height="30" as="alternateBounds" />
          </mxGeometry>
        </mxCell>
        <mxCell id="dvMq7z_w7fG76Abtl-HF-26" value="&lt;font style=&quot;font-size: 15px;&quot;&gt;email&lt;/font&gt;" style="shape=partialRectangle;connectable=0;fillColor=none;top=0;left=0;bottom=0;right=0;align=left;spacingLeft=6;overflow=hidden;whiteSpace=wrap;html=1;sketch=1;curveFitting=1;jiggle=2;shadow=0;strokeColor=#666666;fontFamily=Comic Sans MS;fontSize=15;" parent="dvMq7z_w7fG76Abtl-HF-24" vertex="1">
          <mxGeometry x="30" width="138" height="30" as="geometry">
            <mxRectangle width="138" height="30" as="alternateBounds" />
          </mxGeometry>
        </mxCell>
        <mxCell id="dvMq7z_w7fG76Abtl-HF-74" value="&lt;font style=&quot;font-size: 15px;&quot;&gt;varchar(100)&lt;/font&gt;" style="shape=partialRectangle;connectable=0;fillColor=none;top=0;left=0;bottom=0;right=0;align=left;spacingLeft=6;overflow=hidden;whiteSpace=wrap;html=1;sketch=1;curveFitting=1;jiggle=2;shadow=0;strokeColor=#666666;fontFamily=Comic Sans MS;fontSize=15;" parent="dvMq7z_w7fG76Abtl-HF-24" vertex="1">
          <mxGeometry x="168" width="112" height="30" as="geometry">
            <mxRectangle width="112" height="30" as="alternateBounds" />
          </mxGeometry>
        </mxCell>
        <mxCell id="dvMq7z_w7fG76Abtl-HF-82" value="&lt;font style=&quot;font-size: 15px;&quot;&gt;no&lt;/font&gt;" style="shape=partialRectangle;connectable=0;fillColor=none;top=0;left=0;bottom=0;right=0;align=left;spacingLeft=6;overflow=hidden;whiteSpace=wrap;html=1;sketch=1;curveFitting=1;jiggle=2;shadow=0;strokeColor=#666666;fontFamily=Comic Sans MS;fontSize=15;" parent="dvMq7z_w7fG76Abtl-HF-24" vertex="1">
          <mxGeometry x="280" width="70" height="30" as="geometry">
            <mxRectangle width="70" height="30" as="alternateBounds" />
          </mxGeometry>
        </mxCell>
        <mxCell id="dvMq7z_w7fG76Abtl-HF-99" style="shape=tableRow;horizontal=0;startSize=0;swimlaneHead=0;swimlaneBody=0;fillColor=none;collapsible=0;dropTarget=0;points=[[0,0.5],[1,0.5]];portConstraint=eastwest;top=0;left=0;right=0;bottom=0;sketch=1;curveFitting=1;jiggle=2;shadow=0;strokeColor=#666666;fontFamily=Comic Sans MS;" parent="dvMq7z_w7fG76Abtl-HF-14" vertex="1">
          <mxGeometry y="150" width="350" height="30" as="geometry" />
        </mxCell>
        <mxCell id="dvMq7z_w7fG76Abtl-HF-100" style="shape=partialRectangle;connectable=0;fillColor=none;top=0;left=0;bottom=0;right=0;editable=1;overflow=hidden;whiteSpace=wrap;html=1;sketch=1;curveFitting=1;jiggle=2;shadow=0;strokeColor=#666666;fontFamily=Comic Sans MS;fontSize=15;" parent="dvMq7z_w7fG76Abtl-HF-99" vertex="1">
          <mxGeometry width="30" height="30" as="geometry">
            <mxRectangle width="30" height="30" as="alternateBounds" />
          </mxGeometry>
        </mxCell>
        <mxCell id="dvMq7z_w7fG76Abtl-HF-101" value="&lt;font style=&quot;font-size: 15px;&quot;&gt;password_hash&lt;/font&gt;" style="shape=partialRectangle;connectable=0;fillColor=none;top=0;left=0;bottom=0;right=0;align=left;spacingLeft=6;overflow=hidden;whiteSpace=wrap;html=1;sketch=1;curveFitting=1;jiggle=2;shadow=0;strokeColor=#666666;fontFamily=Comic Sans MS;fontSize=15;" parent="dvMq7z_w7fG76Abtl-HF-99" vertex="1">
          <mxGeometry x="30" width="138" height="30" as="geometry">
            <mxRectangle width="138" height="30" as="alternateBounds" />
          </mxGeometry>
        </mxCell>
        <mxCell id="dvMq7z_w7fG76Abtl-HF-102" value="&lt;font style=&quot;font-size: 15px;&quot;&gt;varchar(255)&lt;/font&gt;" style="shape=partialRectangle;connectable=0;fillColor=none;top=0;left=0;bottom=0;right=0;align=left;spacingLeft=6;overflow=hidden;whiteSpace=wrap;html=1;sketch=1;curveFitting=1;jiggle=2;shadow=0;strokeColor=#666666;fontFamily=Comic Sans MS;fontSize=15;" parent="dvMq7z_w7fG76Abtl-HF-99" vertex="1">
          <mxGeometry x="168" width="112" height="30" as="geometry">
            <mxRectangle width="112" height="30" as="alternateBounds" />
          </mxGeometry>
        </mxCell>
        <mxCell id="dvMq7z_w7fG76Abtl-HF-103" value="&lt;font style=&quot;font-size: 15px;&quot;&gt;no&lt;/font&gt;" style="shape=partialRectangle;connectable=0;fillColor=none;top=0;left=0;bottom=0;right=0;align=left;spacingLeft=6;overflow=hidden;whiteSpace=wrap;html=1;sketch=1;curveFitting=1;jiggle=2;shadow=0;strokeColor=#666666;fontFamily=Comic Sans MS;fontSize=15;" parent="dvMq7z_w7fG76Abtl-HF-99" vertex="1">
          <mxGeometry x="280" width="70" height="30" as="geometry">
            <mxRectangle width="70" height="30" as="alternateBounds" />
          </mxGeometry>
        </mxCell>
        <mxCell id="dvMq7z_w7fG76Abtl-HF-84" style="shape=tableRow;horizontal=0;startSize=0;swimlaneHead=0;swimlaneBody=0;fillColor=none;collapsible=0;dropTarget=0;points=[[0,0.5],[1,0.5]];portConstraint=eastwest;top=0;left=0;right=0;bottom=0;sketch=1;curveFitting=1;jiggle=2;shadow=0;strokeColor=#666666;fontFamily=Comic Sans MS;" parent="dvMq7z_w7fG76Abtl-HF-14" vertex="1">
          <mxGeometry y="180" width="350" height="30" as="geometry" />
        </mxCell>
        <mxCell id="dvMq7z_w7fG76Abtl-HF-85" style="shape=partialRectangle;connectable=0;fillColor=none;top=0;left=0;bottom=0;right=0;editable=1;overflow=hidden;whiteSpace=wrap;html=1;sketch=1;curveFitting=1;jiggle=2;shadow=0;strokeColor=#666666;fontFamily=Comic Sans MS;fontSize=15;" parent="dvMq7z_w7fG76Abtl-HF-84" vertex="1">
          <mxGeometry width="30" height="30" as="geometry">
            <mxRectangle width="30" height="30" as="alternateBounds" />
          </mxGeometry>
        </mxCell>
        <mxCell id="dvMq7z_w7fG76Abtl-HF-86" value="&lt;font style=&quot;font-size: 15px;&quot;&gt;registration_date&lt;/font&gt;" style="shape=partialRectangle;connectable=0;fillColor=none;top=0;left=0;bottom=0;right=0;align=left;spacingLeft=6;overflow=hidden;whiteSpace=wrap;html=1;sketch=1;curveFitting=1;jiggle=2;shadow=0;strokeColor=#666666;fontFamily=Comic Sans MS;fontSize=15;" parent="dvMq7z_w7fG76Abtl-HF-84" vertex="1">
          <mxGeometry x="30" width="138" height="30" as="geometry">
            <mxRectangle width="138" height="30" as="alternateBounds" />
          </mxGeometry>
        </mxCell>
        <mxCell id="dvMq7z_w7fG76Abtl-HF-87" value="&lt;font style=&quot;font-size: 15px;&quot;&gt;datetime&lt;/font&gt;" style="shape=partialRectangle;connectable=0;fillColor=none;top=0;left=0;bottom=0;right=0;align=left;spacingLeft=6;overflow=hidden;whiteSpace=wrap;html=1;sketch=1;curveFitting=1;jiggle=2;shadow=0;strokeColor=#666666;fontFamily=Comic Sans MS;fontSize=15;" parent="dvMq7z_w7fG76Abtl-HF-84" vertex="1">
          <mxGeometry x="168" width="112" height="30" as="geometry">
            <mxRectangle width="112" height="30" as="alternateBounds" />
          </mxGeometry>
        </mxCell>
        <mxCell id="dvMq7z_w7fG76Abtl-HF-88" value="no" style="shape=partialRectangle;connectable=0;fillColor=none;top=0;left=0;bottom=0;right=0;align=left;spacingLeft=6;overflow=hidden;whiteSpace=wrap;html=1;sketch=1;curveFitting=1;jiggle=2;shadow=0;strokeColor=#666666;fontFamily=Comic Sans MS;fontSize=15;" parent="dvMq7z_w7fG76Abtl-HF-84" vertex="1">
          <mxGeometry x="280" width="70" height="30" as="geometry">
            <mxRectangle width="70" height="30" as="alternateBounds" />
          </mxGeometry>
        </mxCell>
        <mxCell id="dvMq7z_w7fG76Abtl-HF-89" style="shape=tableRow;horizontal=0;startSize=0;swimlaneHead=0;swimlaneBody=0;fillColor=none;collapsible=0;dropTarget=0;points=[[0,0.5],[1,0.5]];portConstraint=eastwest;top=0;left=0;right=0;bottom=0;sketch=1;curveFitting=1;jiggle=2;shadow=0;strokeColor=#666666;fontFamily=Comic Sans MS;" parent="dvMq7z_w7fG76Abtl-HF-14" vertex="1">
          <mxGeometry y="210" width="350" height="30" as="geometry" />
        </mxCell>
        <mxCell id="dvMq7z_w7fG76Abtl-HF-90" style="shape=partialRectangle;connectable=0;fillColor=none;top=0;left=0;bottom=0;right=0;editable=1;overflow=hidden;whiteSpace=wrap;html=1;sketch=1;curveFitting=1;jiggle=2;shadow=0;strokeColor=#666666;fontFamily=Comic Sans MS;fontSize=15;" parent="dvMq7z_w7fG76Abtl-HF-89" vertex="1">
          <mxGeometry width="30" height="30" as="geometry">
            <mxRectangle width="30" height="30" as="alternateBounds" />
          </mxGeometry>
        </mxCell>
        <mxCell id="dvMq7z_w7fG76Abtl-HF-91" value="&lt;font style=&quot;font-size: 15px;&quot;&gt;last_login&lt;/font&gt;" style="shape=partialRectangle;connectable=0;fillColor=none;top=0;left=0;bottom=0;right=0;align=left;spacingLeft=6;overflow=hidden;whiteSpace=wrap;html=1;sketch=1;curveFitting=1;jiggle=2;shadow=0;strokeColor=#666666;fontFamily=Comic Sans MS;fontSize=15;" parent="dvMq7z_w7fG76Abtl-HF-89" vertex="1">
          <mxGeometry x="30" width="138" height="30" as="geometry">
            <mxRectangle width="138" height="30" as="alternateBounds" />
          </mxGeometry>
        </mxCell>
        <mxCell id="dvMq7z_w7fG76Abtl-HF-92" value="&lt;font style=&quot;font-size: 15px;&quot;&gt;datetime&lt;/font&gt;" style="shape=partialRectangle;connectable=0;fillColor=none;top=0;left=0;bottom=0;right=0;align=left;spacingLeft=6;overflow=hidden;whiteSpace=wrap;html=1;sketch=1;curveFitting=1;jiggle=2;shadow=0;strokeColor=#666666;fontFamily=Comic Sans MS;fontSize=15;" parent="dvMq7z_w7fG76Abtl-HF-89" vertex="1">
          <mxGeometry x="168" width="112" height="30" as="geometry">
            <mxRectangle width="112" height="30" as="alternateBounds" />
          </mxGeometry>
        </mxCell>
        <mxCell id="dvMq7z_w7fG76Abtl-HF-93" value="&lt;font style=&quot;font-size: 15px;&quot;&gt;yes&lt;/font&gt;" style="shape=partialRectangle;connectable=0;fillColor=none;top=0;left=0;bottom=0;right=0;align=left;spacingLeft=6;overflow=hidden;whiteSpace=wrap;html=1;sketch=1;curveFitting=1;jiggle=2;shadow=0;strokeColor=#666666;fontFamily=Comic Sans MS;fontSize=15;" parent="dvMq7z_w7fG76Abtl-HF-89" vertex="1">
          <mxGeometry x="280" width="70" height="30" as="geometry">
            <mxRectangle width="70" height="30" as="alternateBounds" />
          </mxGeometry>
        </mxCell>
        <mxCell id="dvMq7z_w7fG76Abtl-HF-140" value="&lt;font style=&quot;font-size: 18px;&quot;&gt;Orders&lt;/font&gt;" style="shape=table;startSize=30;container=1;collapsible=1;childLayout=tableLayout;fixedRows=1;rowLines=0;fontStyle=1;align=center;resizeLast=1;html=1;sketch=1;curveFitting=1;jiggle=2;shadow=0;strokeColor=#666666;fontFamily=Comic Sans MS;fillColor=#f5f5f5;fontColor=#333333;" parent="1" vertex="1">
          <mxGeometry x="465" y="340" width="310" height="210" as="geometry" />
        </mxCell>
        <mxCell id="dvMq7z_w7fG76Abtl-HF-141" value="" style="shape=tableRow;horizontal=0;startSize=0;swimlaneHead=0;swimlaneBody=0;fillColor=none;collapsible=0;dropTarget=0;points=[[0,0.5],[1,0.5]];portConstraint=eastwest;top=0;left=0;right=0;bottom=1;sketch=1;curveFitting=1;jiggle=2;shadow=0;strokeColor=#666666;fontFamily=Comic Sans MS;" parent="dvMq7z_w7fG76Abtl-HF-140" vertex="1">
          <mxGeometry y="30" width="310" height="30" as="geometry" />
        </mxCell>
        <mxCell id="dvMq7z_w7fG76Abtl-HF-142" value="" style="shape=partialRectangle;connectable=0;fillColor=none;top=0;left=0;bottom=0;right=0;fontStyle=1;overflow=hidden;whiteSpace=wrap;html=1;sketch=1;curveFitting=1;jiggle=2;shadow=0;strokeColor=#666666;fontFamily=Comic Sans MS;fontSize=15;" parent="dvMq7z_w7fG76Abtl-HF-141" vertex="1">
          <mxGeometry width="30" height="30" as="geometry">
            <mxRectangle width="30" height="30" as="alternateBounds" />
          </mxGeometry>
        </mxCell>
        <mxCell id="dvMq7z_w7fG76Abtl-HF-143" value="&lt;font style=&quot;font-size: 15px;&quot;&gt;Field&lt;/font&gt;" style="shape=partialRectangle;connectable=0;fillColor=none;top=0;left=0;bottom=0;right=0;align=left;spacingLeft=6;fontStyle=5;overflow=hidden;whiteSpace=wrap;html=1;sketch=1;curveFitting=1;jiggle=2;shadow=0;strokeColor=#666666;fontFamily=Comic Sans MS;fontSize=15;" parent="dvMq7z_w7fG76Abtl-HF-141" vertex="1">
          <mxGeometry x="30" width="110" height="30" as="geometry">
            <mxRectangle width="110" height="30" as="alternateBounds" />
          </mxGeometry>
        </mxCell>
        <mxCell id="dvMq7z_w7fG76Abtl-HF-144" value="&lt;font style=&quot;font-size: 15px;&quot;&gt;Type&lt;/font&gt;" style="shape=partialRectangle;connectable=0;fillColor=none;top=0;left=0;bottom=0;right=0;align=left;spacingLeft=6;fontStyle=5;overflow=hidden;whiteSpace=wrap;html=1;sketch=1;curveFitting=1;jiggle=2;shadow=0;strokeColor=#666666;fontFamily=Comic Sans MS;fontSize=15;" parent="dvMq7z_w7fG76Abtl-HF-141" vertex="1">
          <mxGeometry x="140" width="100" height="30" as="geometry">
            <mxRectangle width="100" height="30" as="alternateBounds" />
          </mxGeometry>
        </mxCell>
        <mxCell id="dvMq7z_w7fG76Abtl-HF-145" value="&lt;font style=&quot;font-size: 15px;&quot;&gt;Nullable&lt;/font&gt;" style="shape=partialRectangle;connectable=0;fillColor=none;top=0;left=0;bottom=0;right=0;align=left;spacingLeft=6;fontStyle=5;overflow=hidden;whiteSpace=wrap;html=1;sketch=1;curveFitting=1;jiggle=2;shadow=0;strokeColor=#666666;fontFamily=Comic Sans MS;fontSize=15;" parent="dvMq7z_w7fG76Abtl-HF-141" vertex="1">
          <mxGeometry x="240" width="70" height="30" as="geometry">
            <mxRectangle width="70" height="30" as="alternateBounds" />
          </mxGeometry>
        </mxCell>
        <mxCell id="dvMq7z_w7fG76Abtl-HF-146" value="" style="shape=tableRow;horizontal=0;startSize=0;swimlaneHead=0;swimlaneBody=0;fillColor=none;collapsible=0;dropTarget=0;points=[[0,0.5],[1,0.5]];portConstraint=eastwest;top=0;left=0;right=0;bottom=0;sketch=1;curveFitting=1;jiggle=2;shadow=0;strokeColor=#666666;fontFamily=Comic Sans MS;" parent="dvMq7z_w7fG76Abtl-HF-140" vertex="1">
          <mxGeometry y="60" width="310" height="30" as="geometry" />
        </mxCell>
        <mxCell id="dvMq7z_w7fG76Abtl-HF-147" value="&lt;b style=&quot;font-size: 15px;&quot;&gt;&lt;font style=&quot;font-size: 15px;&quot;&gt;PK&lt;/font&gt;&lt;/b&gt;" style="shape=partialRectangle;connectable=0;fillColor=none;top=0;left=0;bottom=0;right=0;editable=1;overflow=hidden;whiteSpace=wrap;html=1;sketch=1;curveFitting=1;jiggle=2;shadow=0;strokeColor=#666666;fontFamily=Comic Sans MS;fontSize=15;" parent="dvMq7z_w7fG76Abtl-HF-146" vertex="1">
          <mxGeometry width="30" height="30" as="geometry">
            <mxRectangle width="30" height="30" as="alternateBounds" />
          </mxGeometry>
        </mxCell>
        <mxCell id="dvMq7z_w7fG76Abtl-HF-148" value="&lt;b style=&quot;font-size: 15px;&quot;&gt;&lt;font style=&quot;font-size: 15px;&quot;&gt;id&lt;/font&gt;&lt;/b&gt;" style="shape=partialRectangle;connectable=0;fillColor=none;top=0;left=0;bottom=0;right=0;align=left;spacingLeft=6;overflow=hidden;whiteSpace=wrap;html=1;sketch=1;curveFitting=1;jiggle=2;shadow=0;strokeColor=#666666;fontFamily=Comic Sans MS;fontSize=15;" parent="dvMq7z_w7fG76Abtl-HF-146" vertex="1">
          <mxGeometry x="30" width="110" height="30" as="geometry">
            <mxRectangle width="110" height="30" as="alternateBounds" />
          </mxGeometry>
        </mxCell>
        <mxCell id="dvMq7z_w7fG76Abtl-HF-149" value="&lt;font style=&quot;font-size: 15px;&quot;&gt;int&lt;/font&gt;" style="shape=partialRectangle;connectable=0;fillColor=none;top=0;left=0;bottom=0;right=0;align=left;spacingLeft=6;overflow=hidden;whiteSpace=wrap;html=1;sketch=1;curveFitting=1;jiggle=2;shadow=0;strokeColor=#666666;fontFamily=Comic Sans MS;fontSize=15;" parent="dvMq7z_w7fG76Abtl-HF-146" vertex="1">
          <mxGeometry x="140" width="100" height="30" as="geometry">
            <mxRectangle width="100" height="30" as="alternateBounds" />
          </mxGeometry>
        </mxCell>
        <mxCell id="dvMq7z_w7fG76Abtl-HF-150" value="&lt;font style=&quot;font-size: 15px;&quot;&gt;no&lt;/font&gt;" style="shape=partialRectangle;connectable=0;fillColor=none;top=0;left=0;bottom=0;right=0;align=left;spacingLeft=6;overflow=hidden;whiteSpace=wrap;html=1;sketch=1;curveFitting=1;jiggle=2;shadow=0;strokeColor=#666666;fontFamily=Comic Sans MS;fontSize=15;" parent="dvMq7z_w7fG76Abtl-HF-146" vertex="1">
          <mxGeometry x="240" width="70" height="30" as="geometry">
            <mxRectangle width="70" height="30" as="alternateBounds" />
          </mxGeometry>
        </mxCell>
        <mxCell id="dvMq7z_w7fG76Abtl-HF-151" value="" style="shape=tableRow;horizontal=0;startSize=0;swimlaneHead=0;swimlaneBody=0;fillColor=none;collapsible=0;dropTarget=0;points=[[0,0.5],[1,0.5]];portConstraint=eastwest;top=0;left=0;right=0;bottom=0;sketch=1;curveFitting=1;jiggle=2;shadow=0;strokeColor=#666666;fontFamily=Comic Sans MS;" parent="dvMq7z_w7fG76Abtl-HF-140" vertex="1">
          <mxGeometry y="90" width="310" height="30" as="geometry" />
        </mxCell>
        <mxCell id="dvMq7z_w7fG76Abtl-HF-152" value="&lt;font style=&quot;font-size: 15px;&quot;&gt;◇&lt;/font&gt;" style="shape=partialRectangle;connectable=0;fillColor=none;top=0;left=0;bottom=0;right=0;editable=1;overflow=hidden;whiteSpace=wrap;html=1;sketch=1;curveFitting=1;jiggle=2;shadow=0;strokeColor=#666666;fontFamily=Comic Sans MS;fontSize=15;" parent="dvMq7z_w7fG76Abtl-HF-151" vertex="1">
          <mxGeometry width="30" height="30" as="geometry">
            <mxRectangle width="30" height="30" as="alternateBounds" />
          </mxGeometry>
        </mxCell>
        <mxCell id="dvMq7z_w7fG76Abtl-HF-153" value="user_id" style="shape=partialRectangle;connectable=0;fillColor=none;top=0;left=0;bottom=0;right=0;align=left;spacingLeft=6;overflow=hidden;whiteSpace=wrap;html=1;sketch=1;curveFitting=1;jiggle=2;shadow=0;strokeColor=#666666;fontFamily=Comic Sans MS;fontSize=15;" parent="dvMq7z_w7fG76Abtl-HF-151" vertex="1">
          <mxGeometry x="30" width="110" height="30" as="geometry">
            <mxRectangle width="110" height="30" as="alternateBounds" />
          </mxGeometry>
        </mxCell>
        <mxCell id="dvMq7z_w7fG76Abtl-HF-154" value="&lt;font style=&quot;font-size: 15px;&quot;&gt;int&lt;/font&gt;" style="shape=partialRectangle;connectable=0;fillColor=none;top=0;left=0;bottom=0;right=0;align=left;spacingLeft=6;overflow=hidden;whiteSpace=wrap;html=1;sketch=1;curveFitting=1;jiggle=2;shadow=0;strokeColor=#666666;fontFamily=Comic Sans MS;fontSize=15;" parent="dvMq7z_w7fG76Abtl-HF-151" vertex="1">
          <mxGeometry x="140" width="100" height="30" as="geometry">
            <mxRectangle width="100" height="30" as="alternateBounds" />
          </mxGeometry>
        </mxCell>
        <mxCell id="dvMq7z_w7fG76Abtl-HF-155" value="&lt;font style=&quot;font-size: 15px;&quot;&gt;no&lt;/font&gt;" style="shape=partialRectangle;connectable=0;fillColor=none;top=0;left=0;bottom=0;right=0;align=left;spacingLeft=6;overflow=hidden;whiteSpace=wrap;html=1;sketch=1;curveFitting=1;jiggle=2;shadow=0;strokeColor=#666666;fontFamily=Comic Sans MS;fontSize=15;" parent="dvMq7z_w7fG76Abtl-HF-151" vertex="1">
          <mxGeometry x="240" width="70" height="30" as="geometry">
            <mxRectangle width="70" height="30" as="alternateBounds" />
          </mxGeometry>
        </mxCell>
        <mxCell id="dvMq7z_w7fG76Abtl-HF-156" value="" style="shape=tableRow;horizontal=0;startSize=0;swimlaneHead=0;swimlaneBody=0;fillColor=none;collapsible=0;dropTarget=0;points=[[0,0.5],[1,0.5]];portConstraint=eastwest;top=0;left=0;right=0;bottom=0;sketch=1;curveFitting=1;jiggle=2;shadow=0;strokeColor=#666666;fontFamily=Comic Sans MS;" parent="dvMq7z_w7fG76Abtl-HF-140" vertex="1">
          <mxGeometry y="120" width="310" height="30" as="geometry" />
        </mxCell>
        <mxCell id="dvMq7z_w7fG76Abtl-HF-157" value="" style="shape=partialRectangle;connectable=0;fillColor=none;top=0;left=0;bottom=0;right=0;editable=1;overflow=hidden;whiteSpace=wrap;html=1;sketch=1;curveFitting=1;jiggle=2;shadow=0;strokeColor=#666666;fontFamily=Comic Sans MS;fontSize=15;" parent="dvMq7z_w7fG76Abtl-HF-156" vertex="1">
          <mxGeometry width="30" height="30" as="geometry">
            <mxRectangle width="30" height="30" as="alternateBounds" />
          </mxGeometry>
        </mxCell>
        <mxCell id="dvMq7z_w7fG76Abtl-HF-158" value="order_date" style="shape=partialRectangle;connectable=0;fillColor=none;top=0;left=0;bottom=0;right=0;align=left;spacingLeft=6;overflow=hidden;whiteSpace=wrap;html=1;sketch=1;curveFitting=1;jiggle=2;shadow=0;strokeColor=#666666;fontFamily=Comic Sans MS;fontSize=15;" parent="dvMq7z_w7fG76Abtl-HF-156" vertex="1">
          <mxGeometry x="30" width="110" height="30" as="geometry">
            <mxRectangle width="110" height="30" as="alternateBounds" />
          </mxGeometry>
        </mxCell>
        <mxCell id="dvMq7z_w7fG76Abtl-HF-159" value="&lt;font style=&quot;font-size: 15px;&quot;&gt;datetime&lt;/font&gt;" style="shape=partialRectangle;connectable=0;fillColor=none;top=0;left=0;bottom=0;right=0;align=left;spacingLeft=6;overflow=hidden;whiteSpace=wrap;html=1;sketch=1;curveFitting=1;jiggle=2;shadow=0;strokeColor=#666666;fontFamily=Comic Sans MS;fontSize=15;" parent="dvMq7z_w7fG76Abtl-HF-156" vertex="1">
          <mxGeometry x="140" width="100" height="30" as="geometry">
            <mxRectangle width="100" height="30" as="alternateBounds" />
          </mxGeometry>
        </mxCell>
        <mxCell id="dvMq7z_w7fG76Abtl-HF-160" value="&lt;font style=&quot;font-size: 15px;&quot;&gt;no&lt;/font&gt;" style="shape=partialRectangle;connectable=0;fillColor=none;top=0;left=0;bottom=0;right=0;align=left;spacingLeft=6;overflow=hidden;whiteSpace=wrap;html=1;sketch=1;curveFitting=1;jiggle=2;shadow=0;strokeColor=#666666;fontFamily=Comic Sans MS;fontSize=15;" parent="dvMq7z_w7fG76Abtl-HF-156" vertex="1">
          <mxGeometry x="240" width="70" height="30" as="geometry">
            <mxRectangle width="70" height="30" as="alternateBounds" />
          </mxGeometry>
        </mxCell>
        <mxCell id="dvMq7z_w7fG76Abtl-HF-161" style="shape=tableRow;horizontal=0;startSize=0;swimlaneHead=0;swimlaneBody=0;fillColor=none;collapsible=0;dropTarget=0;points=[[0,0.5],[1,0.5]];portConstraint=eastwest;top=0;left=0;right=0;bottom=0;sketch=1;curveFitting=1;jiggle=2;shadow=0;strokeColor=#666666;fontFamily=Comic Sans MS;" parent="dvMq7z_w7fG76Abtl-HF-140" vertex="1">
          <mxGeometry y="150" width="310" height="30" as="geometry" />
        </mxCell>
        <mxCell id="dvMq7z_w7fG76Abtl-HF-162" style="shape=partialRectangle;connectable=0;fillColor=none;top=0;left=0;bottom=0;right=0;editable=1;overflow=hidden;whiteSpace=wrap;html=1;sketch=1;curveFitting=1;jiggle=2;shadow=0;strokeColor=#666666;fontFamily=Comic Sans MS;fontSize=15;" parent="dvMq7z_w7fG76Abtl-HF-161" vertex="1">
          <mxGeometry width="30" height="30" as="geometry">
            <mxRectangle width="30" height="30" as="alternateBounds" />
          </mxGeometry>
        </mxCell>
        <mxCell id="dvMq7z_w7fG76Abtl-HF-163" value="status" style="shape=partialRectangle;connectable=0;fillColor=none;top=0;left=0;bottom=0;right=0;align=left;spacingLeft=6;overflow=hidden;whiteSpace=wrap;html=1;sketch=1;curveFitting=1;jiggle=2;shadow=0;strokeColor=#666666;fontFamily=Comic Sans MS;fontSize=15;" parent="dvMq7z_w7fG76Abtl-HF-161" vertex="1">
          <mxGeometry x="30" width="110" height="30" as="geometry">
            <mxRectangle width="110" height="30" as="alternateBounds" />
          </mxGeometry>
        </mxCell>
        <mxCell id="dvMq7z_w7fG76Abtl-HF-164" value="&lt;font style=&quot;font-size: 15px;&quot;&gt;varchar(50)&lt;/font&gt;" style="shape=partialRectangle;connectable=0;fillColor=none;top=0;left=0;bottom=0;right=0;align=left;spacingLeft=6;overflow=hidden;whiteSpace=wrap;html=1;sketch=1;curveFitting=1;jiggle=2;shadow=0;strokeColor=#666666;fontFamily=Comic Sans MS;fontSize=15;" parent="dvMq7z_w7fG76Abtl-HF-161" vertex="1">
          <mxGeometry x="140" width="100" height="30" as="geometry">
            <mxRectangle width="100" height="30" as="alternateBounds" />
          </mxGeometry>
        </mxCell>
        <mxCell id="dvMq7z_w7fG76Abtl-HF-165" value="&lt;font style=&quot;font-size: 15px;&quot;&gt;no&lt;/font&gt;" style="shape=partialRectangle;connectable=0;fillColor=none;top=0;left=0;bottom=0;right=0;align=left;spacingLeft=6;overflow=hidden;whiteSpace=wrap;html=1;sketch=1;curveFitting=1;jiggle=2;shadow=0;strokeColor=#666666;fontFamily=Comic Sans MS;fontSize=15;" parent="dvMq7z_w7fG76Abtl-HF-161" vertex="1">
          <mxGeometry x="240" width="70" height="30" as="geometry">
            <mxRectangle width="70" height="30" as="alternateBounds" />
          </mxGeometry>
        </mxCell>
        <mxCell id="dvMq7z_w7fG76Abtl-HF-166" style="shape=tableRow;horizontal=0;startSize=0;swimlaneHead=0;swimlaneBody=0;fillColor=none;collapsible=0;dropTarget=0;points=[[0,0.5],[1,0.5]];portConstraint=eastwest;top=0;left=0;right=0;bottom=0;sketch=1;curveFitting=1;jiggle=2;shadow=0;strokeColor=#666666;fontFamily=Comic Sans MS;" parent="dvMq7z_w7fG76Abtl-HF-140" vertex="1">
          <mxGeometry y="180" width="310" height="30" as="geometry" />
        </mxCell>
        <mxCell id="dvMq7z_w7fG76Abtl-HF-167" style="shape=partialRectangle;connectable=0;fillColor=none;top=0;left=0;bottom=0;right=0;editable=1;overflow=hidden;whiteSpace=wrap;html=1;sketch=1;curveFitting=1;jiggle=2;shadow=0;strokeColor=#666666;fontFamily=Comic Sans MS;fontSize=15;" parent="dvMq7z_w7fG76Abtl-HF-166" vertex="1">
          <mxGeometry width="30" height="30" as="geometry">
            <mxRectangle width="30" height="30" as="alternateBounds" />
          </mxGeometry>
        </mxCell>
        <mxCell id="dvMq7z_w7fG76Abtl-HF-168" value="total_price" style="shape=partialRectangle;connectable=0;fillColor=none;top=0;left=0;bottom=0;right=0;align=left;spacingLeft=6;overflow=hidden;whiteSpace=wrap;html=1;sketch=1;curveFitting=1;jiggle=2;shadow=0;strokeColor=#666666;fontFamily=Comic Sans MS;fontSize=15;" parent="dvMq7z_w7fG76Abtl-HF-166" vertex="1">
          <mxGeometry x="30" width="110" height="30" as="geometry">
            <mxRectangle width="110" height="30" as="alternateBounds" />
          </mxGeometry>
        </mxCell>
        <mxCell id="dvMq7z_w7fG76Abtl-HF-169" value="&lt;font style=&quot;font-size: 15px;&quot;&gt;float&lt;/font&gt;" style="shape=partialRectangle;connectable=0;fillColor=none;top=0;left=0;bottom=0;right=0;align=left;spacingLeft=6;overflow=hidden;whiteSpace=wrap;html=1;sketch=1;curveFitting=1;jiggle=2;shadow=0;strokeColor=#666666;fontFamily=Comic Sans MS;fontSize=15;" parent="dvMq7z_w7fG76Abtl-HF-166" vertex="1">
          <mxGeometry x="140" width="100" height="30" as="geometry">
            <mxRectangle width="100" height="30" as="alternateBounds" />
          </mxGeometry>
        </mxCell>
        <mxCell id="dvMq7z_w7fG76Abtl-HF-170" value="&lt;font style=&quot;font-size: 15px;&quot;&gt;no&lt;/font&gt;" style="shape=partialRectangle;connectable=0;fillColor=none;top=0;left=0;bottom=0;right=0;align=left;spacingLeft=6;overflow=hidden;whiteSpace=wrap;html=1;sketch=1;curveFitting=1;jiggle=2;shadow=0;strokeColor=#666666;fontFamily=Comic Sans MS;fontSize=15;" parent="dvMq7z_w7fG76Abtl-HF-166" vertex="1">
          <mxGeometry x="240" width="70" height="30" as="geometry">
            <mxRectangle width="70" height="30" as="alternateBounds" />
          </mxGeometry>
        </mxCell>
        <mxCell id="dvMq7z_w7fG76Abtl-HF-191" value="&lt;font style=&quot;font-size: 18px;&quot;&gt;OrdersDetail&lt;/font&gt;" style="shape=table;startSize=30;container=1;collapsible=1;childLayout=tableLayout;fixedRows=1;rowLines=0;fontStyle=1;align=center;resizeLast=1;html=1;sketch=1;curveFitting=1;jiggle=2;shadow=0;strokeColor=#666666;fontFamily=Comic Sans MS;fillColor=#f5f5f5;fontColor=#333333;" parent="1" vertex="1">
          <mxGeometry x="-400" y="371" width="300" height="240" as="geometry" />
        </mxCell>
        <mxCell id="dvMq7z_w7fG76Abtl-HF-192" value="" style="shape=tableRow;horizontal=0;startSize=0;swimlaneHead=0;swimlaneBody=0;fillColor=none;collapsible=0;dropTarget=0;points=[[0,0.5],[1,0.5]];portConstraint=eastwest;top=0;left=0;right=0;bottom=1;sketch=1;curveFitting=1;jiggle=2;shadow=0;strokeColor=#666666;fontFamily=Comic Sans MS;" parent="dvMq7z_w7fG76Abtl-HF-191" vertex="1">
          <mxGeometry y="30" width="300" height="30" as="geometry" />
        </mxCell>
        <mxCell id="dvMq7z_w7fG76Abtl-HF-193" value="" style="shape=partialRectangle;connectable=0;fillColor=none;top=0;left=0;bottom=0;right=0;fontStyle=1;overflow=hidden;whiteSpace=wrap;html=1;sketch=1;curveFitting=1;jiggle=2;shadow=0;strokeColor=#666666;fontFamily=Comic Sans MS;fontSize=15;" parent="dvMq7z_w7fG76Abtl-HF-192" vertex="1">
          <mxGeometry width="30" height="30" as="geometry">
            <mxRectangle width="30" height="30" as="alternateBounds" />
          </mxGeometry>
        </mxCell>
        <mxCell id="dvMq7z_w7fG76Abtl-HF-194" value="&lt;font style=&quot;font-size: 15px;&quot;&gt;Field&lt;/font&gt;" style="shape=partialRectangle;connectable=0;fillColor=none;top=0;left=0;bottom=0;right=0;align=left;spacingLeft=6;fontStyle=5;overflow=hidden;whiteSpace=wrap;html=1;sketch=1;curveFitting=1;jiggle=2;shadow=0;strokeColor=#666666;fontFamily=Comic Sans MS;fontSize=15;" parent="dvMq7z_w7fG76Abtl-HF-192" vertex="1">
          <mxGeometry x="30" width="110" height="30" as="geometry">
            <mxRectangle width="110" height="30" as="alternateBounds" />
          </mxGeometry>
        </mxCell>
        <mxCell id="dvMq7z_w7fG76Abtl-HF-195" value="&lt;font style=&quot;font-size: 15px;&quot;&gt;Type&lt;/font&gt;" style="shape=partialRectangle;connectable=0;fillColor=none;top=0;left=0;bottom=0;right=0;align=left;spacingLeft=6;fontStyle=5;overflow=hidden;whiteSpace=wrap;html=1;sketch=1;curveFitting=1;jiggle=2;shadow=0;strokeColor=#666666;fontFamily=Comic Sans MS;fontSize=15;" parent="dvMq7z_w7fG76Abtl-HF-192" vertex="1">
          <mxGeometry x="140" width="90" height="30" as="geometry">
            <mxRectangle width="90" height="30" as="alternateBounds" />
          </mxGeometry>
        </mxCell>
        <mxCell id="dvMq7z_w7fG76Abtl-HF-196" value="&lt;font style=&quot;font-size: 15px;&quot;&gt;Nullable&lt;/font&gt;" style="shape=partialRectangle;connectable=0;fillColor=none;top=0;left=0;bottom=0;right=0;align=left;spacingLeft=6;fontStyle=5;overflow=hidden;whiteSpace=wrap;html=1;sketch=1;curveFitting=1;jiggle=2;shadow=0;strokeColor=#666666;fontFamily=Comic Sans MS;fontSize=15;" parent="dvMq7z_w7fG76Abtl-HF-192" vertex="1">
          <mxGeometry x="230" width="70" height="30" as="geometry">
            <mxRectangle width="70" height="30" as="alternateBounds" />
          </mxGeometry>
        </mxCell>
        <mxCell id="dvMq7z_w7fG76Abtl-HF-197" value="" style="shape=tableRow;horizontal=0;startSize=0;swimlaneHead=0;swimlaneBody=0;fillColor=none;collapsible=0;dropTarget=0;points=[[0,0.5],[1,0.5]];portConstraint=eastwest;top=0;left=0;right=0;bottom=0;sketch=1;curveFitting=1;jiggle=2;shadow=0;strokeColor=#666666;fontFamily=Comic Sans MS;" parent="dvMq7z_w7fG76Abtl-HF-191" vertex="1">
          <mxGeometry y="60" width="300" height="30" as="geometry" />
        </mxCell>
        <mxCell id="dvMq7z_w7fG76Abtl-HF-198" value="&lt;b style=&quot;font-size: 15px;&quot;&gt;&lt;font style=&quot;font-size: 15px;&quot;&gt;PK&lt;/font&gt;&lt;/b&gt;" style="shape=partialRectangle;connectable=0;fillColor=none;top=0;left=0;bottom=0;right=0;editable=1;overflow=hidden;whiteSpace=wrap;html=1;sketch=1;curveFitting=1;jiggle=2;shadow=0;strokeColor=#666666;fontFamily=Comic Sans MS;fontSize=15;" parent="dvMq7z_w7fG76Abtl-HF-197" vertex="1">
          <mxGeometry width="30" height="30" as="geometry">
            <mxRectangle width="30" height="30" as="alternateBounds" />
          </mxGeometry>
        </mxCell>
        <mxCell id="dvMq7z_w7fG76Abtl-HF-199" value="&lt;b style=&quot;font-size: 15px;&quot;&gt;&lt;font style=&quot;font-size: 15px;&quot;&gt;id&lt;/font&gt;&lt;/b&gt;" style="shape=partialRectangle;connectable=0;fillColor=none;top=0;left=0;bottom=0;right=0;align=left;spacingLeft=6;overflow=hidden;whiteSpace=wrap;html=1;sketch=1;curveFitting=1;jiggle=2;shadow=0;strokeColor=#666666;fontFamily=Comic Sans MS;fontSize=15;" parent="dvMq7z_w7fG76Abtl-HF-197" vertex="1">
          <mxGeometry x="30" width="110" height="30" as="geometry">
            <mxRectangle width="110" height="30" as="alternateBounds" />
          </mxGeometry>
        </mxCell>
        <mxCell id="dvMq7z_w7fG76Abtl-HF-200" value="&lt;font style=&quot;font-size: 15px;&quot;&gt;int&lt;/font&gt;" style="shape=partialRectangle;connectable=0;fillColor=none;top=0;left=0;bottom=0;right=0;align=left;spacingLeft=6;overflow=hidden;whiteSpace=wrap;html=1;sketch=1;curveFitting=1;jiggle=2;shadow=0;strokeColor=#666666;fontFamily=Comic Sans MS;fontSize=15;" parent="dvMq7z_w7fG76Abtl-HF-197" vertex="1">
          <mxGeometry x="140" width="90" height="30" as="geometry">
            <mxRectangle width="90" height="30" as="alternateBounds" />
          </mxGeometry>
        </mxCell>
        <mxCell id="dvMq7z_w7fG76Abtl-HF-201" value="&lt;font style=&quot;font-size: 15px;&quot;&gt;no&lt;/font&gt;" style="shape=partialRectangle;connectable=0;fillColor=none;top=0;left=0;bottom=0;right=0;align=left;spacingLeft=6;overflow=hidden;whiteSpace=wrap;html=1;sketch=1;curveFitting=1;jiggle=2;shadow=0;strokeColor=#666666;fontFamily=Comic Sans MS;fontSize=15;" parent="dvMq7z_w7fG76Abtl-HF-197" vertex="1">
          <mxGeometry x="230" width="70" height="30" as="geometry">
            <mxRectangle width="70" height="30" as="alternateBounds" />
          </mxGeometry>
        </mxCell>
        <mxCell id="dvMq7z_w7fG76Abtl-HF-202" value="" style="shape=tableRow;horizontal=0;startSize=0;swimlaneHead=0;swimlaneBody=0;fillColor=none;collapsible=0;dropTarget=0;points=[[0,0.5],[1,0.5]];portConstraint=eastwest;top=0;left=0;right=0;bottom=0;sketch=1;curveFitting=1;jiggle=2;shadow=0;strokeColor=#666666;fontFamily=Comic Sans MS;" parent="dvMq7z_w7fG76Abtl-HF-191" vertex="1">
          <mxGeometry y="90" width="300" height="30" as="geometry" />
        </mxCell>
        <mxCell id="dvMq7z_w7fG76Abtl-HF-203" value="◇" style="shape=partialRectangle;connectable=0;fillColor=none;top=0;left=0;bottom=0;right=0;editable=1;overflow=hidden;whiteSpace=wrap;html=1;sketch=1;curveFitting=1;jiggle=2;shadow=0;strokeColor=#666666;fontFamily=Comic Sans MS;fontSize=15;" parent="dvMq7z_w7fG76Abtl-HF-202" vertex="1">
          <mxGeometry width="30" height="30" as="geometry">
            <mxRectangle width="30" height="30" as="alternateBounds" />
          </mxGeometry>
        </mxCell>
        <mxCell id="dvMq7z_w7fG76Abtl-HF-204" value="order_id" style="shape=partialRectangle;connectable=0;fillColor=none;top=0;left=0;bottom=0;right=0;align=left;spacingLeft=6;overflow=hidden;whiteSpace=wrap;html=1;sketch=1;curveFitting=1;jiggle=2;shadow=0;strokeColor=#666666;fontFamily=Comic Sans MS;fontSize=15;" parent="dvMq7z_w7fG76Abtl-HF-202" vertex="1">
          <mxGeometry x="30" width="110" height="30" as="geometry">
            <mxRectangle width="110" height="30" as="alternateBounds" />
          </mxGeometry>
        </mxCell>
        <mxCell id="dvMq7z_w7fG76Abtl-HF-205" value="&lt;font style=&quot;font-size: 15px;&quot;&gt;int&lt;/font&gt;" style="shape=partialRectangle;connectable=0;fillColor=none;top=0;left=0;bottom=0;right=0;align=left;spacingLeft=6;overflow=hidden;whiteSpace=wrap;html=1;sketch=1;curveFitting=1;jiggle=2;shadow=0;strokeColor=#666666;fontFamily=Comic Sans MS;fontSize=15;" parent="dvMq7z_w7fG76Abtl-HF-202" vertex="1">
          <mxGeometry x="140" width="90" height="30" as="geometry">
            <mxRectangle width="90" height="30" as="alternateBounds" />
          </mxGeometry>
        </mxCell>
        <mxCell id="dvMq7z_w7fG76Abtl-HF-206" value="&lt;font style=&quot;font-size: 15px;&quot;&gt;no&lt;/font&gt;" style="shape=partialRectangle;connectable=0;fillColor=none;top=0;left=0;bottom=0;right=0;align=left;spacingLeft=6;overflow=hidden;whiteSpace=wrap;html=1;sketch=1;curveFitting=1;jiggle=2;shadow=0;strokeColor=#666666;fontFamily=Comic Sans MS;fontSize=15;" parent="dvMq7z_w7fG76Abtl-HF-202" vertex="1">
          <mxGeometry x="230" width="70" height="30" as="geometry">
            <mxRectangle width="70" height="30" as="alternateBounds" />
          </mxGeometry>
        </mxCell>
        <mxCell id="dvMq7z_w7fG76Abtl-HF-207" value="" style="shape=tableRow;horizontal=0;startSize=0;swimlaneHead=0;swimlaneBody=0;fillColor=none;collapsible=0;dropTarget=0;points=[[0,0.5],[1,0.5]];portConstraint=eastwest;top=0;left=0;right=0;bottom=0;sketch=1;curveFitting=1;jiggle=2;shadow=0;strokeColor=#666666;fontFamily=Comic Sans MS;" parent="dvMq7z_w7fG76Abtl-HF-191" vertex="1">
          <mxGeometry y="120" width="300" height="30" as="geometry" />
        </mxCell>
        <mxCell id="dvMq7z_w7fG76Abtl-HF-208" value="◇" style="shape=partialRectangle;connectable=0;fillColor=none;top=0;left=0;bottom=0;right=0;editable=1;overflow=hidden;whiteSpace=wrap;html=1;sketch=1;curveFitting=1;jiggle=2;shadow=0;strokeColor=#666666;fontFamily=Comic Sans MS;fontSize=15;" parent="dvMq7z_w7fG76Abtl-HF-207" vertex="1">
          <mxGeometry width="30" height="30" as="geometry">
            <mxRectangle width="30" height="30" as="alternateBounds" />
          </mxGeometry>
        </mxCell>
        <mxCell id="dvMq7z_w7fG76Abtl-HF-209" value="product_id" style="shape=partialRectangle;connectable=0;fillColor=none;top=0;left=0;bottom=0;right=0;align=left;spacingLeft=6;overflow=hidden;whiteSpace=wrap;html=1;sketch=1;curveFitting=1;jiggle=2;shadow=0;strokeColor=#666666;fontFamily=Comic Sans MS;fontSize=15;" parent="dvMq7z_w7fG76Abtl-HF-207" vertex="1">
          <mxGeometry x="30" width="110" height="30" as="geometry">
            <mxRectangle width="110" height="30" as="alternateBounds" />
          </mxGeometry>
        </mxCell>
        <mxCell id="dvMq7z_w7fG76Abtl-HF-210" value="int" style="shape=partialRectangle;connectable=0;fillColor=none;top=0;left=0;bottom=0;right=0;align=left;spacingLeft=6;overflow=hidden;whiteSpace=wrap;html=1;sketch=1;curveFitting=1;jiggle=2;shadow=0;strokeColor=#666666;fontFamily=Comic Sans MS;fontSize=15;" parent="dvMq7z_w7fG76Abtl-HF-207" vertex="1">
          <mxGeometry x="140" width="90" height="30" as="geometry">
            <mxRectangle width="90" height="30" as="alternateBounds" />
          </mxGeometry>
        </mxCell>
        <mxCell id="dvMq7z_w7fG76Abtl-HF-211" value="&lt;font style=&quot;font-size: 15px;&quot;&gt;no&lt;/font&gt;" style="shape=partialRectangle;connectable=0;fillColor=none;top=0;left=0;bottom=0;right=0;align=left;spacingLeft=6;overflow=hidden;whiteSpace=wrap;html=1;sketch=1;curveFitting=1;jiggle=2;shadow=0;strokeColor=#666666;fontFamily=Comic Sans MS;fontSize=15;" parent="dvMq7z_w7fG76Abtl-HF-207" vertex="1">
          <mxGeometry x="230" width="70" height="30" as="geometry">
            <mxRectangle width="70" height="30" as="alternateBounds" />
          </mxGeometry>
        </mxCell>
        <mxCell id="dvMq7z_w7fG76Abtl-HF-212" style="shape=tableRow;horizontal=0;startSize=0;swimlaneHead=0;swimlaneBody=0;fillColor=none;collapsible=0;dropTarget=0;points=[[0,0.5],[1,0.5]];portConstraint=eastwest;top=0;left=0;right=0;bottom=0;sketch=1;curveFitting=1;jiggle=2;shadow=0;strokeColor=#666666;fontFamily=Comic Sans MS;" parent="dvMq7z_w7fG76Abtl-HF-191" vertex="1">
          <mxGeometry y="150" width="300" height="30" as="geometry" />
        </mxCell>
        <mxCell id="dvMq7z_w7fG76Abtl-HF-213" style="shape=partialRectangle;connectable=0;fillColor=none;top=0;left=0;bottom=0;right=0;editable=1;overflow=hidden;whiteSpace=wrap;html=1;sketch=1;curveFitting=1;jiggle=2;shadow=0;strokeColor=#666666;fontFamily=Comic Sans MS;fontSize=15;" parent="dvMq7z_w7fG76Abtl-HF-212" vertex="1">
          <mxGeometry width="30" height="30" as="geometry">
            <mxRectangle width="30" height="30" as="alternateBounds" />
          </mxGeometry>
        </mxCell>
        <mxCell id="dvMq7z_w7fG76Abtl-HF-214" value="quantity" style="shape=partialRectangle;connectable=0;fillColor=none;top=0;left=0;bottom=0;right=0;align=left;spacingLeft=6;overflow=hidden;whiteSpace=wrap;html=1;sketch=1;curveFitting=1;jiggle=2;shadow=0;strokeColor=#666666;fontFamily=Comic Sans MS;fontSize=15;" parent="dvMq7z_w7fG76Abtl-HF-212" vertex="1">
          <mxGeometry x="30" width="110" height="30" as="geometry">
            <mxRectangle width="110" height="30" as="alternateBounds" />
          </mxGeometry>
        </mxCell>
        <mxCell id="dvMq7z_w7fG76Abtl-HF-215" value="int" style="shape=partialRectangle;connectable=0;fillColor=none;top=0;left=0;bottom=0;right=0;align=left;spacingLeft=6;overflow=hidden;whiteSpace=wrap;html=1;sketch=1;curveFitting=1;jiggle=2;shadow=0;strokeColor=#666666;fontFamily=Comic Sans MS;fontSize=15;" parent="dvMq7z_w7fG76Abtl-HF-212" vertex="1">
          <mxGeometry x="140" width="90" height="30" as="geometry">
            <mxRectangle width="90" height="30" as="alternateBounds" />
          </mxGeometry>
        </mxCell>
        <mxCell id="dvMq7z_w7fG76Abtl-HF-216" value="&lt;font style=&quot;font-size: 15px;&quot;&gt;no&lt;/font&gt;" style="shape=partialRectangle;connectable=0;fillColor=none;top=0;left=0;bottom=0;right=0;align=left;spacingLeft=6;overflow=hidden;whiteSpace=wrap;html=1;sketch=1;curveFitting=1;jiggle=2;shadow=0;strokeColor=#666666;fontFamily=Comic Sans MS;fontSize=15;" parent="dvMq7z_w7fG76Abtl-HF-212" vertex="1">
          <mxGeometry x="230" width="70" height="30" as="geometry">
            <mxRectangle width="70" height="30" as="alternateBounds" />
          </mxGeometry>
        </mxCell>
        <mxCell id="dvMq7z_w7fG76Abtl-HF-217" style="shape=tableRow;horizontal=0;startSize=0;swimlaneHead=0;swimlaneBody=0;fillColor=none;collapsible=0;dropTarget=0;points=[[0,0.5],[1,0.5]];portConstraint=eastwest;top=0;left=0;right=0;bottom=0;sketch=1;curveFitting=1;jiggle=2;shadow=0;strokeColor=#666666;fontFamily=Comic Sans MS;" parent="dvMq7z_w7fG76Abtl-HF-191" vertex="1">
          <mxGeometry y="180" width="300" height="30" as="geometry" />
        </mxCell>
        <mxCell id="dvMq7z_w7fG76Abtl-HF-218" style="shape=partialRectangle;connectable=0;fillColor=none;top=0;left=0;bottom=0;right=0;editable=1;overflow=hidden;whiteSpace=wrap;html=1;sketch=1;curveFitting=1;jiggle=2;shadow=0;strokeColor=#666666;fontFamily=Comic Sans MS;fontSize=15;" parent="dvMq7z_w7fG76Abtl-HF-217" vertex="1">
          <mxGeometry width="30" height="30" as="geometry">
            <mxRectangle width="30" height="30" as="alternateBounds" />
          </mxGeometry>
        </mxCell>
        <mxCell id="dvMq7z_w7fG76Abtl-HF-219" value="price" style="shape=partialRectangle;connectable=0;fillColor=none;top=0;left=0;bottom=0;right=0;align=left;spacingLeft=6;overflow=hidden;whiteSpace=wrap;html=1;sketch=1;curveFitting=1;jiggle=2;shadow=0;strokeColor=#666666;fontFamily=Comic Sans MS;fontSize=15;" parent="dvMq7z_w7fG76Abtl-HF-217" vertex="1">
          <mxGeometry x="30" width="110" height="30" as="geometry">
            <mxRectangle width="110" height="30" as="alternateBounds" />
          </mxGeometry>
        </mxCell>
        <mxCell id="dvMq7z_w7fG76Abtl-HF-220" value="&lt;font style=&quot;font-size: 15px;&quot;&gt;float&lt;/font&gt;" style="shape=partialRectangle;connectable=0;fillColor=none;top=0;left=0;bottom=0;right=0;align=left;spacingLeft=6;overflow=hidden;whiteSpace=wrap;html=1;sketch=1;curveFitting=1;jiggle=2;shadow=0;strokeColor=#666666;fontFamily=Comic Sans MS;fontSize=15;" parent="dvMq7z_w7fG76Abtl-HF-217" vertex="1">
          <mxGeometry x="140" width="90" height="30" as="geometry">
            <mxRectangle width="90" height="30" as="alternateBounds" />
          </mxGeometry>
        </mxCell>
        <mxCell id="dvMq7z_w7fG76Abtl-HF-221" value="&lt;font style=&quot;font-size: 15px;&quot;&gt;no&lt;/font&gt;" style="shape=partialRectangle;connectable=0;fillColor=none;top=0;left=0;bottom=0;right=0;align=left;spacingLeft=6;overflow=hidden;whiteSpace=wrap;html=1;sketch=1;curveFitting=1;jiggle=2;shadow=0;strokeColor=#666666;fontFamily=Comic Sans MS;fontSize=15;" parent="dvMq7z_w7fG76Abtl-HF-217" vertex="1">
          <mxGeometry x="230" width="70" height="30" as="geometry">
            <mxRectangle width="70" height="30" as="alternateBounds" />
          </mxGeometry>
        </mxCell>
        <mxCell id="dvMq7z_w7fG76Abtl-HF-227" style="shape=tableRow;horizontal=0;startSize=0;swimlaneHead=0;swimlaneBody=0;fillColor=none;collapsible=0;dropTarget=0;points=[[0,0.5],[1,0.5]];portConstraint=eastwest;top=0;left=0;right=0;bottom=0;sketch=1;curveFitting=1;jiggle=2;shadow=0;strokeColor=#666666;fontFamily=Comic Sans MS;" parent="dvMq7z_w7fG76Abtl-HF-191" vertex="1">
          <mxGeometry y="210" width="300" height="30" as="geometry" />
        </mxCell>
        <mxCell id="dvMq7z_w7fG76Abtl-HF-228" style="shape=partialRectangle;connectable=0;fillColor=none;top=0;left=0;bottom=0;right=0;editable=1;overflow=hidden;whiteSpace=wrap;html=1;sketch=1;curveFitting=1;jiggle=2;shadow=0;strokeColor=#666666;fontFamily=Comic Sans MS;fontSize=15;" parent="dvMq7z_w7fG76Abtl-HF-227" vertex="1">
          <mxGeometry width="30" height="30" as="geometry">
            <mxRectangle width="30" height="30" as="alternateBounds" />
          </mxGeometry>
        </mxCell>
        <mxCell id="dvMq7z_w7fG76Abtl-HF-229" value="discount" style="shape=partialRectangle;connectable=0;fillColor=none;top=0;left=0;bottom=0;right=0;align=left;spacingLeft=6;overflow=hidden;whiteSpace=wrap;html=1;sketch=1;curveFitting=1;jiggle=2;shadow=0;strokeColor=#666666;fontFamily=Comic Sans MS;fontSize=15;" parent="dvMq7z_w7fG76Abtl-HF-227" vertex="1">
          <mxGeometry x="30" width="110" height="30" as="geometry">
            <mxRectangle width="110" height="30" as="alternateBounds" />
          </mxGeometry>
        </mxCell>
        <mxCell id="dvMq7z_w7fG76Abtl-HF-230" value="float" style="shape=partialRectangle;connectable=0;fillColor=none;top=0;left=0;bottom=0;right=0;align=left;spacingLeft=6;overflow=hidden;whiteSpace=wrap;html=1;sketch=1;curveFitting=1;jiggle=2;shadow=0;strokeColor=#666666;fontFamily=Comic Sans MS;fontSize=15;" parent="dvMq7z_w7fG76Abtl-HF-227" vertex="1">
          <mxGeometry x="140" width="90" height="30" as="geometry">
            <mxRectangle width="90" height="30" as="alternateBounds" />
          </mxGeometry>
        </mxCell>
        <mxCell id="dvMq7z_w7fG76Abtl-HF-231" value="yes" style="shape=partialRectangle;connectable=0;fillColor=none;top=0;left=0;bottom=0;right=0;align=left;spacingLeft=6;overflow=hidden;whiteSpace=wrap;html=1;sketch=1;curveFitting=1;jiggle=2;shadow=0;strokeColor=#666666;fontFamily=Comic Sans MS;fontSize=15;" parent="dvMq7z_w7fG76Abtl-HF-227" vertex="1">
          <mxGeometry x="230" width="70" height="30" as="geometry">
            <mxRectangle width="70" height="30" as="alternateBounds" />
          </mxGeometry>
        </mxCell>
        <mxCell id="dvMq7z_w7fG76Abtl-HF-233" value="&lt;font style=&quot;font-size: 18px;&quot;&gt;Events&lt;/font&gt;" style="shape=table;startSize=30;container=1;collapsible=1;childLayout=tableLayout;fixedRows=1;rowLines=0;fontStyle=1;align=center;resizeLast=1;html=1;sketch=1;curveFitting=1;jiggle=2;shadow=0;strokeColor=#666666;fontFamily=Comic Sans MS;fillColor=#f5f5f5;fontColor=#333333;" parent="1" vertex="1">
          <mxGeometry x="40" width="310" height="210" as="geometry" />
        </mxCell>
        <mxCell id="dvMq7z_w7fG76Abtl-HF-234" value="" style="shape=tableRow;horizontal=0;startSize=0;swimlaneHead=0;swimlaneBody=0;fillColor=none;collapsible=0;dropTarget=0;points=[[0,0.5],[1,0.5]];portConstraint=eastwest;top=0;left=0;right=0;bottom=1;sketch=1;curveFitting=1;jiggle=2;shadow=0;strokeColor=#666666;fontFamily=Comic Sans MS;" parent="dvMq7z_w7fG76Abtl-HF-233" vertex="1">
          <mxGeometry y="30" width="310" height="30" as="geometry" />
        </mxCell>
        <mxCell id="dvMq7z_w7fG76Abtl-HF-235" value="" style="shape=partialRectangle;connectable=0;fillColor=none;top=0;left=0;bottom=0;right=0;fontStyle=1;overflow=hidden;whiteSpace=wrap;html=1;sketch=1;curveFitting=1;jiggle=2;shadow=0;strokeColor=#666666;fontFamily=Comic Sans MS;fontSize=15;" parent="dvMq7z_w7fG76Abtl-HF-234" vertex="1">
          <mxGeometry width="30" height="30" as="geometry">
            <mxRectangle width="30" height="30" as="alternateBounds" />
          </mxGeometry>
        </mxCell>
        <mxCell id="dvMq7z_w7fG76Abtl-HF-236" value="&lt;font style=&quot;font-size: 15px;&quot;&gt;Field&lt;/font&gt;" style="shape=partialRectangle;connectable=0;fillColor=none;top=0;left=0;bottom=0;right=0;align=left;spacingLeft=6;fontStyle=5;overflow=hidden;whiteSpace=wrap;html=1;sketch=1;curveFitting=1;jiggle=2;shadow=0;strokeColor=#666666;fontFamily=Comic Sans MS;fontSize=15;" parent="dvMq7z_w7fG76Abtl-HF-234" vertex="1">
          <mxGeometry x="30" width="110" height="30" as="geometry">
            <mxRectangle width="110" height="30" as="alternateBounds" />
          </mxGeometry>
        </mxCell>
        <mxCell id="dvMq7z_w7fG76Abtl-HF-237" value="&lt;font style=&quot;font-size: 15px;&quot;&gt;Type&lt;/font&gt;" style="shape=partialRectangle;connectable=0;fillColor=none;top=0;left=0;bottom=0;right=0;align=left;spacingLeft=6;fontStyle=5;overflow=hidden;whiteSpace=wrap;html=1;sketch=1;curveFitting=1;jiggle=2;shadow=0;strokeColor=#666666;fontFamily=Comic Sans MS;fontSize=15;" parent="dvMq7z_w7fG76Abtl-HF-234" vertex="1">
          <mxGeometry x="140" width="100" height="30" as="geometry">
            <mxRectangle width="100" height="30" as="alternateBounds" />
          </mxGeometry>
        </mxCell>
        <mxCell id="dvMq7z_w7fG76Abtl-HF-238" value="&lt;font style=&quot;font-size: 15px;&quot;&gt;Nullable&lt;/font&gt;" style="shape=partialRectangle;connectable=0;fillColor=none;top=0;left=0;bottom=0;right=0;align=left;spacingLeft=6;fontStyle=5;overflow=hidden;whiteSpace=wrap;html=1;sketch=1;curveFitting=1;jiggle=2;shadow=0;strokeColor=#666666;fontFamily=Comic Sans MS;fontSize=15;" parent="dvMq7z_w7fG76Abtl-HF-234" vertex="1">
          <mxGeometry x="240" width="70" height="30" as="geometry">
            <mxRectangle width="70" height="30" as="alternateBounds" />
          </mxGeometry>
        </mxCell>
        <mxCell id="dvMq7z_w7fG76Abtl-HF-239" value="" style="shape=tableRow;horizontal=0;startSize=0;swimlaneHead=0;swimlaneBody=0;fillColor=none;collapsible=0;dropTarget=0;points=[[0,0.5],[1,0.5]];portConstraint=eastwest;top=0;left=0;right=0;bottom=0;sketch=1;curveFitting=1;jiggle=2;shadow=0;strokeColor=#666666;fontFamily=Comic Sans MS;" parent="dvMq7z_w7fG76Abtl-HF-233" vertex="1">
          <mxGeometry y="60" width="310" height="30" as="geometry" />
        </mxCell>
        <mxCell id="dvMq7z_w7fG76Abtl-HF-240" value="&lt;b style=&quot;font-size: 15px;&quot;&gt;&lt;font style=&quot;font-size: 15px;&quot;&gt;PK&lt;/font&gt;&lt;/b&gt;" style="shape=partialRectangle;connectable=0;fillColor=none;top=0;left=0;bottom=0;right=0;editable=1;overflow=hidden;whiteSpace=wrap;html=1;sketch=1;curveFitting=1;jiggle=2;shadow=0;strokeColor=#666666;fontFamily=Comic Sans MS;fontSize=15;" parent="dvMq7z_w7fG76Abtl-HF-239" vertex="1">
          <mxGeometry width="30" height="30" as="geometry">
            <mxRectangle width="30" height="30" as="alternateBounds" />
          </mxGeometry>
        </mxCell>
        <mxCell id="dvMq7z_w7fG76Abtl-HF-241" value="&lt;b style=&quot;font-size: 15px;&quot;&gt;&lt;font style=&quot;font-size: 15px;&quot;&gt;id&lt;/font&gt;&lt;/b&gt;" style="shape=partialRectangle;connectable=0;fillColor=none;top=0;left=0;bottom=0;right=0;align=left;spacingLeft=6;overflow=hidden;whiteSpace=wrap;html=1;sketch=1;curveFitting=1;jiggle=2;shadow=0;strokeColor=#666666;fontFamily=Comic Sans MS;fontSize=15;" parent="dvMq7z_w7fG76Abtl-HF-239" vertex="1">
          <mxGeometry x="30" width="110" height="30" as="geometry">
            <mxRectangle width="110" height="30" as="alternateBounds" />
          </mxGeometry>
        </mxCell>
        <mxCell id="dvMq7z_w7fG76Abtl-HF-242" value="&lt;font style=&quot;font-size: 15px;&quot;&gt;int&lt;/font&gt;" style="shape=partialRectangle;connectable=0;fillColor=none;top=0;left=0;bottom=0;right=0;align=left;spacingLeft=6;overflow=hidden;whiteSpace=wrap;html=1;sketch=1;curveFitting=1;jiggle=2;shadow=0;strokeColor=#666666;fontFamily=Comic Sans MS;fontSize=15;" parent="dvMq7z_w7fG76Abtl-HF-239" vertex="1">
          <mxGeometry x="140" width="100" height="30" as="geometry">
            <mxRectangle width="100" height="30" as="alternateBounds" />
          </mxGeometry>
        </mxCell>
        <mxCell id="dvMq7z_w7fG76Abtl-HF-243" value="&lt;font style=&quot;font-size: 15px;&quot;&gt;no&lt;/font&gt;" style="shape=partialRectangle;connectable=0;fillColor=none;top=0;left=0;bottom=0;right=0;align=left;spacingLeft=6;overflow=hidden;whiteSpace=wrap;html=1;sketch=1;curveFitting=1;jiggle=2;shadow=0;strokeColor=#666666;fontFamily=Comic Sans MS;fontSize=15;" parent="dvMq7z_w7fG76Abtl-HF-239" vertex="1">
          <mxGeometry x="240" width="70" height="30" as="geometry">
            <mxRectangle width="70" height="30" as="alternateBounds" />
          </mxGeometry>
        </mxCell>
        <mxCell id="dvMq7z_w7fG76Abtl-HF-244" value="" style="shape=tableRow;horizontal=0;startSize=0;swimlaneHead=0;swimlaneBody=0;fillColor=none;collapsible=0;dropTarget=0;points=[[0,0.5],[1,0.5]];portConstraint=eastwest;top=0;left=0;right=0;bottom=0;sketch=1;curveFitting=1;jiggle=2;shadow=0;strokeColor=#666666;fontFamily=Comic Sans MS;" parent="dvMq7z_w7fG76Abtl-HF-233" vertex="1">
          <mxGeometry y="90" width="310" height="30" as="geometry" />
        </mxCell>
        <mxCell id="dvMq7z_w7fG76Abtl-HF-245" value="◇" style="shape=partialRectangle;connectable=0;fillColor=none;top=0;left=0;bottom=0;right=0;editable=1;overflow=hidden;whiteSpace=wrap;html=1;sketch=1;curveFitting=1;jiggle=2;shadow=0;strokeColor=#666666;fontFamily=Comic Sans MS;fontSize=15;" parent="dvMq7z_w7fG76Abtl-HF-244" vertex="1">
          <mxGeometry width="30" height="30" as="geometry">
            <mxRectangle width="30" height="30" as="alternateBounds" />
          </mxGeometry>
        </mxCell>
        <mxCell id="dvMq7z_w7fG76Abtl-HF-246" value="user_id" style="shape=partialRectangle;connectable=0;fillColor=none;top=0;left=0;bottom=0;right=0;align=left;spacingLeft=6;overflow=hidden;whiteSpace=wrap;html=1;sketch=1;curveFitting=1;jiggle=2;shadow=0;strokeColor=#666666;fontFamily=Comic Sans MS;fontSize=15;" parent="dvMq7z_w7fG76Abtl-HF-244" vertex="1">
          <mxGeometry x="30" width="110" height="30" as="geometry">
            <mxRectangle width="110" height="30" as="alternateBounds" />
          </mxGeometry>
        </mxCell>
        <mxCell id="dvMq7z_w7fG76Abtl-HF-247" value="&lt;font style=&quot;font-size: 15px;&quot;&gt;int&lt;/font&gt;" style="shape=partialRectangle;connectable=0;fillColor=none;top=0;left=0;bottom=0;right=0;align=left;spacingLeft=6;overflow=hidden;whiteSpace=wrap;html=1;sketch=1;curveFitting=1;jiggle=2;shadow=0;strokeColor=#666666;fontFamily=Comic Sans MS;fontSize=15;" parent="dvMq7z_w7fG76Abtl-HF-244" vertex="1">
          <mxGeometry x="140" width="100" height="30" as="geometry">
            <mxRectangle width="100" height="30" as="alternateBounds" />
          </mxGeometry>
        </mxCell>
        <mxCell id="dvMq7z_w7fG76Abtl-HF-248" value="&lt;font style=&quot;font-size: 15px;&quot;&gt;no&lt;/font&gt;" style="shape=partialRectangle;connectable=0;fillColor=none;top=0;left=0;bottom=0;right=0;align=left;spacingLeft=6;overflow=hidden;whiteSpace=wrap;html=1;sketch=1;curveFitting=1;jiggle=2;shadow=0;strokeColor=#666666;fontFamily=Comic Sans MS;fontSize=15;" parent="dvMq7z_w7fG76Abtl-HF-244" vertex="1">
          <mxGeometry x="240" width="70" height="30" as="geometry">
            <mxRectangle width="70" height="30" as="alternateBounds" />
          </mxGeometry>
        </mxCell>
        <mxCell id="dvMq7z_w7fG76Abtl-HF-249" value="" style="shape=tableRow;horizontal=0;startSize=0;swimlaneHead=0;swimlaneBody=0;fillColor=none;collapsible=0;dropTarget=0;points=[[0,0.5],[1,0.5]];portConstraint=eastwest;top=0;left=0;right=0;bottom=0;sketch=1;curveFitting=1;jiggle=2;shadow=0;strokeColor=#666666;fontFamily=Comic Sans MS;" parent="dvMq7z_w7fG76Abtl-HF-233" vertex="1">
          <mxGeometry y="120" width="310" height="30" as="geometry" />
        </mxCell>
        <mxCell id="dvMq7z_w7fG76Abtl-HF-250" value="◇" style="shape=partialRectangle;connectable=0;fillColor=none;top=0;left=0;bottom=0;right=0;editable=1;overflow=hidden;whiteSpace=wrap;html=1;sketch=1;curveFitting=1;jiggle=2;shadow=0;strokeColor=#666666;fontFamily=Comic Sans MS;fontSize=15;" parent="dvMq7z_w7fG76Abtl-HF-249" vertex="1">
          <mxGeometry width="30" height="30" as="geometry">
            <mxRectangle width="30" height="30" as="alternateBounds" />
          </mxGeometry>
        </mxCell>
        <mxCell id="dvMq7z_w7fG76Abtl-HF-251" value="product_id" style="shape=partialRectangle;connectable=0;fillColor=none;top=0;left=0;bottom=0;right=0;align=left;spacingLeft=6;overflow=hidden;whiteSpace=wrap;html=1;sketch=1;curveFitting=1;jiggle=2;shadow=0;strokeColor=#666666;fontFamily=Comic Sans MS;fontSize=15;" parent="dvMq7z_w7fG76Abtl-HF-249" vertex="1">
          <mxGeometry x="30" width="110" height="30" as="geometry">
            <mxRectangle width="110" height="30" as="alternateBounds" />
          </mxGeometry>
        </mxCell>
        <mxCell id="dvMq7z_w7fG76Abtl-HF-252" value="&lt;font style=&quot;font-size: 15px;&quot;&gt;int&lt;/font&gt;" style="shape=partialRectangle;connectable=0;fillColor=none;top=0;left=0;bottom=0;right=0;align=left;spacingLeft=6;overflow=hidden;whiteSpace=wrap;html=1;sketch=1;curveFitting=1;jiggle=2;shadow=0;strokeColor=#666666;fontFamily=Comic Sans MS;fontSize=15;" parent="dvMq7z_w7fG76Abtl-HF-249" vertex="1">
          <mxGeometry x="140" width="100" height="30" as="geometry">
            <mxRectangle width="100" height="30" as="alternateBounds" />
          </mxGeometry>
        </mxCell>
        <mxCell id="dvMq7z_w7fG76Abtl-HF-253" value="&lt;font style=&quot;font-size: 15px;&quot;&gt;no&lt;/font&gt;" style="shape=partialRectangle;connectable=0;fillColor=none;top=0;left=0;bottom=0;right=0;align=left;spacingLeft=6;overflow=hidden;whiteSpace=wrap;html=1;sketch=1;curveFitting=1;jiggle=2;shadow=0;strokeColor=#666666;fontFamily=Comic Sans MS;fontSize=15;" parent="dvMq7z_w7fG76Abtl-HF-249" vertex="1">
          <mxGeometry x="240" width="70" height="30" as="geometry">
            <mxRectangle width="70" height="30" as="alternateBounds" />
          </mxGeometry>
        </mxCell>
        <mxCell id="dvMq7z_w7fG76Abtl-HF-254" style="shape=tableRow;horizontal=0;startSize=0;swimlaneHead=0;swimlaneBody=0;fillColor=none;collapsible=0;dropTarget=0;points=[[0,0.5],[1,0.5]];portConstraint=eastwest;top=0;left=0;right=0;bottom=0;sketch=1;curveFitting=1;jiggle=2;shadow=0;strokeColor=#666666;fontFamily=Comic Sans MS;" parent="dvMq7z_w7fG76Abtl-HF-233" vertex="1">
          <mxGeometry y="150" width="310" height="30" as="geometry" />
        </mxCell>
        <mxCell id="dvMq7z_w7fG76Abtl-HF-255" style="shape=partialRectangle;connectable=0;fillColor=none;top=0;left=0;bottom=0;right=0;editable=1;overflow=hidden;whiteSpace=wrap;html=1;sketch=1;curveFitting=1;jiggle=2;shadow=0;strokeColor=#666666;fontFamily=Comic Sans MS;fontSize=15;" parent="dvMq7z_w7fG76Abtl-HF-254" vertex="1">
          <mxGeometry width="30" height="30" as="geometry">
            <mxRectangle width="30" height="30" as="alternateBounds" />
          </mxGeometry>
        </mxCell>
        <mxCell id="dvMq7z_w7fG76Abtl-HF-256" value="event_type" style="shape=partialRectangle;connectable=0;fillColor=none;top=0;left=0;bottom=0;right=0;align=left;spacingLeft=6;overflow=hidden;whiteSpace=wrap;html=1;sketch=1;curveFitting=1;jiggle=2;shadow=0;strokeColor=#666666;fontFamily=Comic Sans MS;fontSize=15;" parent="dvMq7z_w7fG76Abtl-HF-254" vertex="1">
          <mxGeometry x="30" width="110" height="30" as="geometry">
            <mxRectangle width="110" height="30" as="alternateBounds" />
          </mxGeometry>
        </mxCell>
        <mxCell id="dvMq7z_w7fG76Abtl-HF-257" value="&lt;font style=&quot;font-size: 15px;&quot;&gt;varchar(50)&lt;/font&gt;" style="shape=partialRectangle;connectable=0;fillColor=none;top=0;left=0;bottom=0;right=0;align=left;spacingLeft=6;overflow=hidden;whiteSpace=wrap;html=1;sketch=1;curveFitting=1;jiggle=2;shadow=0;strokeColor=#666666;fontFamily=Comic Sans MS;fontSize=15;" parent="dvMq7z_w7fG76Abtl-HF-254" vertex="1">
          <mxGeometry x="140" width="100" height="30" as="geometry">
            <mxRectangle width="100" height="30" as="alternateBounds" />
          </mxGeometry>
        </mxCell>
        <mxCell id="dvMq7z_w7fG76Abtl-HF-258" value="&lt;font style=&quot;font-size: 15px;&quot;&gt;no&lt;/font&gt;" style="shape=partialRectangle;connectable=0;fillColor=none;top=0;left=0;bottom=0;right=0;align=left;spacingLeft=6;overflow=hidden;whiteSpace=wrap;html=1;sketch=1;curveFitting=1;jiggle=2;shadow=0;strokeColor=#666666;fontFamily=Comic Sans MS;fontSize=15;" parent="dvMq7z_w7fG76Abtl-HF-254" vertex="1">
          <mxGeometry x="240" width="70" height="30" as="geometry">
            <mxRectangle width="70" height="30" as="alternateBounds" />
          </mxGeometry>
        </mxCell>
        <mxCell id="dvMq7z_w7fG76Abtl-HF-259" style="shape=tableRow;horizontal=0;startSize=0;swimlaneHead=0;swimlaneBody=0;fillColor=none;collapsible=0;dropTarget=0;points=[[0,0.5],[1,0.5]];portConstraint=eastwest;top=0;left=0;right=0;bottom=0;sketch=1;curveFitting=1;jiggle=2;shadow=0;strokeColor=#666666;fontFamily=Comic Sans MS;" parent="dvMq7z_w7fG76Abtl-HF-233" vertex="1">
          <mxGeometry y="180" width="310" height="30" as="geometry" />
        </mxCell>
        <mxCell id="dvMq7z_w7fG76Abtl-HF-260" style="shape=partialRectangle;connectable=0;fillColor=none;top=0;left=0;bottom=0;right=0;editable=1;overflow=hidden;whiteSpace=wrap;html=1;sketch=1;curveFitting=1;jiggle=2;shadow=0;strokeColor=#666666;fontFamily=Comic Sans MS;fontSize=15;" parent="dvMq7z_w7fG76Abtl-HF-259" vertex="1">
          <mxGeometry width="30" height="30" as="geometry">
            <mxRectangle width="30" height="30" as="alternateBounds" />
          </mxGeometry>
        </mxCell>
        <mxCell id="dvMq7z_w7fG76Abtl-HF-261" value="event_time" style="shape=partialRectangle;connectable=0;fillColor=none;top=0;left=0;bottom=0;right=0;align=left;spacingLeft=6;overflow=hidden;whiteSpace=wrap;html=1;sketch=1;curveFitting=1;jiggle=2;shadow=0;strokeColor=#666666;fontFamily=Comic Sans MS;fontSize=15;" parent="dvMq7z_w7fG76Abtl-HF-259" vertex="1">
          <mxGeometry x="30" width="110" height="30" as="geometry">
            <mxRectangle width="110" height="30" as="alternateBounds" />
          </mxGeometry>
        </mxCell>
        <mxCell id="dvMq7z_w7fG76Abtl-HF-262" value="&lt;font style=&quot;font-size: 15px;&quot;&gt;datetime&lt;/font&gt;" style="shape=partialRectangle;connectable=0;fillColor=none;top=0;left=0;bottom=0;right=0;align=left;spacingLeft=6;overflow=hidden;whiteSpace=wrap;html=1;sketch=1;curveFitting=1;jiggle=2;shadow=0;strokeColor=#666666;fontFamily=Comic Sans MS;fontSize=15;" parent="dvMq7z_w7fG76Abtl-HF-259" vertex="1">
          <mxGeometry x="140" width="100" height="30" as="geometry">
            <mxRectangle width="100" height="30" as="alternateBounds" />
          </mxGeometry>
        </mxCell>
        <mxCell id="dvMq7z_w7fG76Abtl-HF-263" value="no" style="shape=partialRectangle;connectable=0;fillColor=none;top=0;left=0;bottom=0;right=0;align=left;spacingLeft=6;overflow=hidden;whiteSpace=wrap;html=1;sketch=1;curveFitting=1;jiggle=2;shadow=0;strokeColor=#666666;fontFamily=Comic Sans MS;fontSize=15;" parent="dvMq7z_w7fG76Abtl-HF-259" vertex="1">
          <mxGeometry x="240" width="70" height="30" as="geometry">
            <mxRectangle width="70" height="30" as="alternateBounds" />
          </mxGeometry>
        </mxCell>
        <mxCell id="dvMq7z_w7fG76Abtl-HF-269" value="&lt;font style=&quot;font-size: 18px;&quot;&gt;Products&lt;/font&gt;" style="shape=table;startSize=30;container=1;collapsible=1;childLayout=tableLayout;fixedRows=1;rowLines=0;fontStyle=1;align=center;resizeLast=1;html=1;sketch=1;curveFitting=1;jiggle=2;shadow=0;strokeColor=#666666;fontFamily=Comic Sans MS;fillColor=#f5f5f5;fontColor=#333333;" parent="1" vertex="1">
          <mxGeometry x="-403" width="323" height="270" as="geometry" />
        </mxCell>
        <mxCell id="dvMq7z_w7fG76Abtl-HF-270" value="" style="shape=tableRow;horizontal=0;startSize=0;swimlaneHead=0;swimlaneBody=0;fillColor=none;collapsible=0;dropTarget=0;points=[[0,0.5],[1,0.5]];portConstraint=eastwest;top=0;left=0;right=0;bottom=1;sketch=1;curveFitting=1;jiggle=2;shadow=0;strokeColor=#666666;fontFamily=Comic Sans MS;" parent="dvMq7z_w7fG76Abtl-HF-269" vertex="1">
          <mxGeometry y="30" width="323" height="30" as="geometry" />
        </mxCell>
        <mxCell id="dvMq7z_w7fG76Abtl-HF-271" value="" style="shape=partialRectangle;connectable=0;fillColor=none;top=0;left=0;bottom=0;right=0;fontStyle=1;overflow=hidden;whiteSpace=wrap;html=1;sketch=1;curveFitting=1;jiggle=2;shadow=0;strokeColor=#666666;fontFamily=Comic Sans MS;fontSize=15;" parent="dvMq7z_w7fG76Abtl-HF-270" vertex="1">
          <mxGeometry width="30" height="30" as="geometry">
            <mxRectangle width="30" height="30" as="alternateBounds" />
          </mxGeometry>
        </mxCell>
        <mxCell id="dvMq7z_w7fG76Abtl-HF-272" value="&lt;font style=&quot;font-size: 15px;&quot;&gt;Field&lt;/font&gt;" style="shape=partialRectangle;connectable=0;fillColor=none;top=0;left=0;bottom=0;right=0;align=left;spacingLeft=6;fontStyle=5;overflow=hidden;whiteSpace=wrap;html=1;sketch=1;curveFitting=1;jiggle=2;shadow=0;strokeColor=#666666;fontFamily=Comic Sans MS;fontSize=15;" parent="dvMq7z_w7fG76Abtl-HF-270" vertex="1">
          <mxGeometry x="30" width="110" height="30" as="geometry">
            <mxRectangle width="110" height="30" as="alternateBounds" />
          </mxGeometry>
        </mxCell>
        <mxCell id="dvMq7z_w7fG76Abtl-HF-273" value="&lt;font style=&quot;font-size: 15px;&quot;&gt;Type&lt;/font&gt;" style="shape=partialRectangle;connectable=0;fillColor=none;top=0;left=0;bottom=0;right=0;align=left;spacingLeft=6;fontStyle=5;overflow=hidden;whiteSpace=wrap;html=1;sketch=1;curveFitting=1;jiggle=2;shadow=0;strokeColor=#666666;fontFamily=Comic Sans MS;fontSize=15;" parent="dvMq7z_w7fG76Abtl-HF-270" vertex="1">
          <mxGeometry x="140" width="113" height="30" as="geometry">
            <mxRectangle width="113" height="30" as="alternateBounds" />
          </mxGeometry>
        </mxCell>
        <mxCell id="dvMq7z_w7fG76Abtl-HF-274" value="&lt;font style=&quot;font-size: 15px;&quot;&gt;Nullable&lt;/font&gt;" style="shape=partialRectangle;connectable=0;fillColor=none;top=0;left=0;bottom=0;right=0;align=left;spacingLeft=6;fontStyle=5;overflow=hidden;whiteSpace=wrap;html=1;sketch=1;curveFitting=1;jiggle=2;shadow=0;strokeColor=#666666;fontFamily=Comic Sans MS;fontSize=15;" parent="dvMq7z_w7fG76Abtl-HF-270" vertex="1">
          <mxGeometry x="253" width="70" height="30" as="geometry">
            <mxRectangle width="70" height="30" as="alternateBounds" />
          </mxGeometry>
        </mxCell>
        <mxCell id="dvMq7z_w7fG76Abtl-HF-275" value="" style="shape=tableRow;horizontal=0;startSize=0;swimlaneHead=0;swimlaneBody=0;fillColor=none;collapsible=0;dropTarget=0;points=[[0,0.5],[1,0.5]];portConstraint=eastwest;top=0;left=0;right=0;bottom=0;sketch=1;curveFitting=1;jiggle=2;shadow=0;strokeColor=#666666;fontFamily=Comic Sans MS;" parent="dvMq7z_w7fG76Abtl-HF-269" vertex="1">
          <mxGeometry y="60" width="323" height="30" as="geometry" />
        </mxCell>
        <mxCell id="dvMq7z_w7fG76Abtl-HF-276" value="&lt;b style=&quot;font-size: 15px;&quot;&gt;&lt;font style=&quot;font-size: 15px;&quot;&gt;PK&lt;/font&gt;&lt;/b&gt;" style="shape=partialRectangle;connectable=0;fillColor=none;top=0;left=0;bottom=0;right=0;editable=1;overflow=hidden;whiteSpace=wrap;html=1;sketch=1;curveFitting=1;jiggle=2;shadow=0;strokeColor=#666666;fontFamily=Comic Sans MS;fontSize=15;" parent="dvMq7z_w7fG76Abtl-HF-275" vertex="1">
          <mxGeometry width="30" height="30" as="geometry">
            <mxRectangle width="30" height="30" as="alternateBounds" />
          </mxGeometry>
        </mxCell>
        <mxCell id="dvMq7z_w7fG76Abtl-HF-277" value="&lt;b style=&quot;font-size: 15px;&quot;&gt;&lt;font style=&quot;font-size: 15px;&quot;&gt;id&lt;/font&gt;&lt;/b&gt;" style="shape=partialRectangle;connectable=0;fillColor=none;top=0;left=0;bottom=0;right=0;align=left;spacingLeft=6;overflow=hidden;whiteSpace=wrap;html=1;sketch=1;curveFitting=1;jiggle=2;shadow=0;strokeColor=#666666;fontFamily=Comic Sans MS;fontSize=15;" parent="dvMq7z_w7fG76Abtl-HF-275" vertex="1">
          <mxGeometry x="30" width="110" height="30" as="geometry">
            <mxRectangle width="110" height="30" as="alternateBounds" />
          </mxGeometry>
        </mxCell>
        <mxCell id="dvMq7z_w7fG76Abtl-HF-278" value="&lt;font style=&quot;font-size: 15px;&quot;&gt;int&lt;/font&gt;" style="shape=partialRectangle;connectable=0;fillColor=none;top=0;left=0;bottom=0;right=0;align=left;spacingLeft=6;overflow=hidden;whiteSpace=wrap;html=1;sketch=1;curveFitting=1;jiggle=2;shadow=0;strokeColor=#666666;fontFamily=Comic Sans MS;fontSize=15;" parent="dvMq7z_w7fG76Abtl-HF-275" vertex="1">
          <mxGeometry x="140" width="113" height="30" as="geometry">
            <mxRectangle width="113" height="30" as="alternateBounds" />
          </mxGeometry>
        </mxCell>
        <mxCell id="dvMq7z_w7fG76Abtl-HF-279" value="&lt;font style=&quot;font-size: 15px;&quot;&gt;no&lt;/font&gt;" style="shape=partialRectangle;connectable=0;fillColor=none;top=0;left=0;bottom=0;right=0;align=left;spacingLeft=6;overflow=hidden;whiteSpace=wrap;html=1;sketch=1;curveFitting=1;jiggle=2;shadow=0;strokeColor=#666666;fontFamily=Comic Sans MS;fontSize=15;" parent="dvMq7z_w7fG76Abtl-HF-275" vertex="1">
          <mxGeometry x="253" width="70" height="30" as="geometry">
            <mxRectangle width="70" height="30" as="alternateBounds" />
          </mxGeometry>
        </mxCell>
        <mxCell id="dvMq7z_w7fG76Abtl-HF-280" value="" style="shape=tableRow;horizontal=0;startSize=0;swimlaneHead=0;swimlaneBody=0;fillColor=none;collapsible=0;dropTarget=0;points=[[0,0.5],[1,0.5]];portConstraint=eastwest;top=0;left=0;right=0;bottom=0;sketch=1;curveFitting=1;jiggle=2;shadow=0;strokeColor=#666666;fontFamily=Comic Sans MS;" parent="dvMq7z_w7fG76Abtl-HF-269" vertex="1">
          <mxGeometry y="90" width="323" height="30" as="geometry" />
        </mxCell>
        <mxCell id="dvMq7z_w7fG76Abtl-HF-281" value="" style="shape=partialRectangle;connectable=0;fillColor=none;top=0;left=0;bottom=0;right=0;editable=1;overflow=hidden;whiteSpace=wrap;html=1;sketch=1;curveFitting=1;jiggle=2;shadow=0;strokeColor=#666666;fontFamily=Comic Sans MS;fontSize=15;" parent="dvMq7z_w7fG76Abtl-HF-280" vertex="1">
          <mxGeometry width="30" height="30" as="geometry">
            <mxRectangle width="30" height="30" as="alternateBounds" />
          </mxGeometry>
        </mxCell>
        <mxCell id="dvMq7z_w7fG76Abtl-HF-282" value="name" style="shape=partialRectangle;connectable=0;fillColor=none;top=0;left=0;bottom=0;right=0;align=left;spacingLeft=6;overflow=hidden;whiteSpace=wrap;html=1;sketch=1;curveFitting=1;jiggle=2;shadow=0;strokeColor=#666666;fontFamily=Comic Sans MS;fontSize=15;" parent="dvMq7z_w7fG76Abtl-HF-280" vertex="1">
          <mxGeometry x="30" width="110" height="30" as="geometry">
            <mxRectangle width="110" height="30" as="alternateBounds" />
          </mxGeometry>
        </mxCell>
        <mxCell id="dvMq7z_w7fG76Abtl-HF-283" value="varchar(100)" style="shape=partialRectangle;connectable=0;fillColor=none;top=0;left=0;bottom=0;right=0;align=left;spacingLeft=6;overflow=hidden;whiteSpace=wrap;html=1;sketch=1;curveFitting=1;jiggle=2;shadow=0;strokeColor=#666666;fontFamily=Comic Sans MS;fontSize=15;" parent="dvMq7z_w7fG76Abtl-HF-280" vertex="1">
          <mxGeometry x="140" width="113" height="30" as="geometry">
            <mxRectangle width="113" height="30" as="alternateBounds" />
          </mxGeometry>
        </mxCell>
        <mxCell id="dvMq7z_w7fG76Abtl-HF-284" value="&lt;font style=&quot;font-size: 15px;&quot;&gt;no&lt;/font&gt;" style="shape=partialRectangle;connectable=0;fillColor=none;top=0;left=0;bottom=0;right=0;align=left;spacingLeft=6;overflow=hidden;whiteSpace=wrap;html=1;sketch=1;curveFitting=1;jiggle=2;shadow=0;strokeColor=#666666;fontFamily=Comic Sans MS;fontSize=15;" parent="dvMq7z_w7fG76Abtl-HF-280" vertex="1">
          <mxGeometry x="253" width="70" height="30" as="geometry">
            <mxRectangle width="70" height="30" as="alternateBounds" />
          </mxGeometry>
        </mxCell>
        <mxCell id="dvMq7z_w7fG76Abtl-HF-285" value="" style="shape=tableRow;horizontal=0;startSize=0;swimlaneHead=0;swimlaneBody=0;fillColor=none;collapsible=0;dropTarget=0;points=[[0,0.5],[1,0.5]];portConstraint=eastwest;top=0;left=0;right=0;bottom=0;sketch=1;curveFitting=1;jiggle=2;shadow=0;strokeColor=#666666;fontFamily=Comic Sans MS;" parent="dvMq7z_w7fG76Abtl-HF-269" vertex="1">
          <mxGeometry y="120" width="323" height="30" as="geometry" />
        </mxCell>
        <mxCell id="dvMq7z_w7fG76Abtl-HF-286" value="◇" style="shape=partialRectangle;connectable=0;fillColor=none;top=0;left=0;bottom=0;right=0;editable=1;overflow=hidden;whiteSpace=wrap;html=1;sketch=1;curveFitting=1;jiggle=2;shadow=0;strokeColor=#666666;fontFamily=Comic Sans MS;fontSize=15;" parent="dvMq7z_w7fG76Abtl-HF-285" vertex="1">
          <mxGeometry width="30" height="30" as="geometry">
            <mxRectangle width="30" height="30" as="alternateBounds" />
          </mxGeometry>
        </mxCell>
        <mxCell id="dvMq7z_w7fG76Abtl-HF-287" value="category_id" style="shape=partialRectangle;connectable=0;fillColor=none;top=0;left=0;bottom=0;right=0;align=left;spacingLeft=6;overflow=hidden;whiteSpace=wrap;html=1;sketch=1;curveFitting=1;jiggle=2;shadow=0;strokeColor=#666666;fontFamily=Comic Sans MS;fontSize=15;" parent="dvMq7z_w7fG76Abtl-HF-285" vertex="1">
          <mxGeometry x="30" width="110" height="30" as="geometry">
            <mxRectangle width="110" height="30" as="alternateBounds" />
          </mxGeometry>
        </mxCell>
        <mxCell id="dvMq7z_w7fG76Abtl-HF-288" value="&lt;font style=&quot;font-size: 15px;&quot;&gt;int&lt;/font&gt;" style="shape=partialRectangle;connectable=0;fillColor=none;top=0;left=0;bottom=0;right=0;align=left;spacingLeft=6;overflow=hidden;whiteSpace=wrap;html=1;sketch=1;curveFitting=1;jiggle=2;shadow=0;strokeColor=#666666;fontFamily=Comic Sans MS;fontSize=15;" parent="dvMq7z_w7fG76Abtl-HF-285" vertex="1">
          <mxGeometry x="140" width="113" height="30" as="geometry">
            <mxRectangle width="113" height="30" as="alternateBounds" />
          </mxGeometry>
        </mxCell>
        <mxCell id="dvMq7z_w7fG76Abtl-HF-289" value="&lt;font style=&quot;font-size: 15px;&quot;&gt;no&lt;/font&gt;" style="shape=partialRectangle;connectable=0;fillColor=none;top=0;left=0;bottom=0;right=0;align=left;spacingLeft=6;overflow=hidden;whiteSpace=wrap;html=1;sketch=1;curveFitting=1;jiggle=2;shadow=0;strokeColor=#666666;fontFamily=Comic Sans MS;fontSize=15;" parent="dvMq7z_w7fG76Abtl-HF-285" vertex="1">
          <mxGeometry x="253" width="70" height="30" as="geometry">
            <mxRectangle width="70" height="30" as="alternateBounds" />
          </mxGeometry>
        </mxCell>
        <mxCell id="dvMq7z_w7fG76Abtl-HF-290" style="shape=tableRow;horizontal=0;startSize=0;swimlaneHead=0;swimlaneBody=0;fillColor=none;collapsible=0;dropTarget=0;points=[[0,0.5],[1,0.5]];portConstraint=eastwest;top=0;left=0;right=0;bottom=0;sketch=1;curveFitting=1;jiggle=2;shadow=0;strokeColor=#666666;fontFamily=Comic Sans MS;" parent="dvMq7z_w7fG76Abtl-HF-269" vertex="1">
          <mxGeometry y="150" width="323" height="30" as="geometry" />
        </mxCell>
        <mxCell id="dvMq7z_w7fG76Abtl-HF-291" style="shape=partialRectangle;connectable=0;fillColor=none;top=0;left=0;bottom=0;right=0;editable=1;overflow=hidden;whiteSpace=wrap;html=1;sketch=1;curveFitting=1;jiggle=2;shadow=0;strokeColor=#666666;fontFamily=Comic Sans MS;fontSize=15;" parent="dvMq7z_w7fG76Abtl-HF-290" vertex="1">
          <mxGeometry width="30" height="30" as="geometry">
            <mxRectangle width="30" height="30" as="alternateBounds" />
          </mxGeometry>
        </mxCell>
        <mxCell id="dvMq7z_w7fG76Abtl-HF-292" value="brand" style="shape=partialRectangle;connectable=0;fillColor=none;top=0;left=0;bottom=0;right=0;align=left;spacingLeft=6;overflow=hidden;whiteSpace=wrap;html=1;sketch=1;curveFitting=1;jiggle=2;shadow=0;strokeColor=#666666;fontFamily=Comic Sans MS;fontSize=15;" parent="dvMq7z_w7fG76Abtl-HF-290" vertex="1">
          <mxGeometry x="30" width="110" height="30" as="geometry">
            <mxRectangle width="110" height="30" as="alternateBounds" />
          </mxGeometry>
        </mxCell>
        <mxCell id="dvMq7z_w7fG76Abtl-HF-293" value="&lt;font style=&quot;font-size: 15px;&quot;&gt;varchar(50)&lt;/font&gt;" style="shape=partialRectangle;connectable=0;fillColor=none;top=0;left=0;bottom=0;right=0;align=left;spacingLeft=6;overflow=hidden;whiteSpace=wrap;html=1;sketch=1;curveFitting=1;jiggle=2;shadow=0;strokeColor=#666666;fontFamily=Comic Sans MS;fontSize=15;" parent="dvMq7z_w7fG76Abtl-HF-290" vertex="1">
          <mxGeometry x="140" width="113" height="30" as="geometry">
            <mxRectangle width="113" height="30" as="alternateBounds" />
          </mxGeometry>
        </mxCell>
        <mxCell id="dvMq7z_w7fG76Abtl-HF-294" value="&lt;font style=&quot;font-size: 15px;&quot;&gt;yes&lt;/font&gt;" style="shape=partialRectangle;connectable=0;fillColor=none;top=0;left=0;bottom=0;right=0;align=left;spacingLeft=6;overflow=hidden;whiteSpace=wrap;html=1;sketch=1;curveFitting=1;jiggle=2;shadow=0;strokeColor=#666666;fontFamily=Comic Sans MS;fontSize=15;" parent="dvMq7z_w7fG76Abtl-HF-290" vertex="1">
          <mxGeometry x="253" width="70" height="30" as="geometry">
            <mxRectangle width="70" height="30" as="alternateBounds" />
          </mxGeometry>
        </mxCell>
        <mxCell id="dvMq7z_w7fG76Abtl-HF-295" style="shape=tableRow;horizontal=0;startSize=0;swimlaneHead=0;swimlaneBody=0;fillColor=none;collapsible=0;dropTarget=0;points=[[0,0.5],[1,0.5]];portConstraint=eastwest;top=0;left=0;right=0;bottom=0;sketch=1;curveFitting=1;jiggle=2;shadow=0;strokeColor=#666666;fontFamily=Comic Sans MS;" parent="dvMq7z_w7fG76Abtl-HF-269" vertex="1">
          <mxGeometry y="180" width="323" height="30" as="geometry" />
        </mxCell>
        <mxCell id="dvMq7z_w7fG76Abtl-HF-296" style="shape=partialRectangle;connectable=0;fillColor=none;top=0;left=0;bottom=0;right=0;editable=1;overflow=hidden;whiteSpace=wrap;html=1;sketch=1;curveFitting=1;jiggle=2;shadow=0;strokeColor=#666666;fontFamily=Comic Sans MS;fontSize=15;" parent="dvMq7z_w7fG76Abtl-HF-295" vertex="1">
          <mxGeometry width="30" height="30" as="geometry">
            <mxRectangle width="30" height="30" as="alternateBounds" />
          </mxGeometry>
        </mxCell>
        <mxCell id="dvMq7z_w7fG76Abtl-HF-297" value="price" style="shape=partialRectangle;connectable=0;fillColor=none;top=0;left=0;bottom=0;right=0;align=left;spacingLeft=6;overflow=hidden;whiteSpace=wrap;html=1;sketch=1;curveFitting=1;jiggle=2;shadow=0;strokeColor=#666666;fontFamily=Comic Sans MS;fontSize=15;" parent="dvMq7z_w7fG76Abtl-HF-295" vertex="1">
          <mxGeometry x="30" width="110" height="30" as="geometry">
            <mxRectangle width="110" height="30" as="alternateBounds" />
          </mxGeometry>
        </mxCell>
        <mxCell id="dvMq7z_w7fG76Abtl-HF-298" value="&lt;font style=&quot;font-size: 15px;&quot;&gt;float&lt;/font&gt;" style="shape=partialRectangle;connectable=0;fillColor=none;top=0;left=0;bottom=0;right=0;align=left;spacingLeft=6;overflow=hidden;whiteSpace=wrap;html=1;sketch=1;curveFitting=1;jiggle=2;shadow=0;strokeColor=#666666;fontFamily=Comic Sans MS;fontSize=15;" parent="dvMq7z_w7fG76Abtl-HF-295" vertex="1">
          <mxGeometry x="140" width="113" height="30" as="geometry">
            <mxRectangle width="113" height="30" as="alternateBounds" />
          </mxGeometry>
        </mxCell>
        <mxCell id="dvMq7z_w7fG76Abtl-HF-299" value="no" style="shape=partialRectangle;connectable=0;fillColor=none;top=0;left=0;bottom=0;right=0;align=left;spacingLeft=6;overflow=hidden;whiteSpace=wrap;html=1;sketch=1;curveFitting=1;jiggle=2;shadow=0;strokeColor=#666666;fontFamily=Comic Sans MS;fontSize=15;" parent="dvMq7z_w7fG76Abtl-HF-295" vertex="1">
          <mxGeometry x="253" width="70" height="30" as="geometry">
            <mxRectangle width="70" height="30" as="alternateBounds" />
          </mxGeometry>
        </mxCell>
        <mxCell id="dvMq7z_w7fG76Abtl-HF-305" style="shape=tableRow;horizontal=0;startSize=0;swimlaneHead=0;swimlaneBody=0;fillColor=none;collapsible=0;dropTarget=0;points=[[0,0.5],[1,0.5]];portConstraint=eastwest;top=0;left=0;right=0;bottom=0;sketch=1;curveFitting=1;jiggle=2;shadow=0;strokeColor=#666666;fontFamily=Comic Sans MS;" parent="dvMq7z_w7fG76Abtl-HF-269" vertex="1">
          <mxGeometry y="210" width="323" height="30" as="geometry" />
        </mxCell>
        <mxCell id="dvMq7z_w7fG76Abtl-HF-306" style="shape=partialRectangle;connectable=0;fillColor=none;top=0;left=0;bottom=0;right=0;editable=1;overflow=hidden;whiteSpace=wrap;html=1;sketch=1;curveFitting=1;jiggle=2;shadow=0;strokeColor=#666666;fontFamily=Comic Sans MS;fontSize=15;" parent="dvMq7z_w7fG76Abtl-HF-305" vertex="1">
          <mxGeometry width="30" height="30" as="geometry">
            <mxRectangle width="30" height="30" as="alternateBounds" />
          </mxGeometry>
        </mxCell>
        <mxCell id="dvMq7z_w7fG76Abtl-HF-307" value="description" style="shape=partialRectangle;connectable=0;fillColor=none;top=0;left=0;bottom=0;right=0;align=left;spacingLeft=6;overflow=hidden;whiteSpace=wrap;html=1;sketch=1;curveFitting=1;jiggle=2;shadow=0;strokeColor=#666666;fontFamily=Comic Sans MS;fontSize=15;" parent="dvMq7z_w7fG76Abtl-HF-305" vertex="1">
          <mxGeometry x="30" width="110" height="30" as="geometry">
            <mxRectangle width="110" height="30" as="alternateBounds" />
          </mxGeometry>
        </mxCell>
        <mxCell id="dvMq7z_w7fG76Abtl-HF-308" value="varchar(255)" style="shape=partialRectangle;connectable=0;fillColor=none;top=0;left=0;bottom=0;right=0;align=left;spacingLeft=6;overflow=hidden;whiteSpace=wrap;html=1;sketch=1;curveFitting=1;jiggle=2;shadow=0;strokeColor=#666666;fontFamily=Comic Sans MS;fontSize=15;" parent="dvMq7z_w7fG76Abtl-HF-305" vertex="1">
          <mxGeometry x="140" width="113" height="30" as="geometry">
            <mxRectangle width="113" height="30" as="alternateBounds" />
          </mxGeometry>
        </mxCell>
        <mxCell id="dvMq7z_w7fG76Abtl-HF-309" value="yes" style="shape=partialRectangle;connectable=0;fillColor=none;top=0;left=0;bottom=0;right=0;align=left;spacingLeft=6;overflow=hidden;whiteSpace=wrap;html=1;sketch=1;curveFitting=1;jiggle=2;shadow=0;strokeColor=#666666;fontFamily=Comic Sans MS;fontSize=15;" parent="dvMq7z_w7fG76Abtl-HF-305" vertex="1">
          <mxGeometry x="253" width="70" height="30" as="geometry">
            <mxRectangle width="70" height="30" as="alternateBounds" />
          </mxGeometry>
        </mxCell>
        <mxCell id="dvMq7z_w7fG76Abtl-HF-300" style="shape=tableRow;horizontal=0;startSize=0;swimlaneHead=0;swimlaneBody=0;fillColor=none;collapsible=0;dropTarget=0;points=[[0,0.5],[1,0.5]];portConstraint=eastwest;top=0;left=0;right=0;bottom=0;sketch=1;curveFitting=1;jiggle=2;shadow=0;strokeColor=#666666;fontFamily=Comic Sans MS;" parent="dvMq7z_w7fG76Abtl-HF-269" vertex="1">
          <mxGeometry y="240" width="323" height="30" as="geometry" />
        </mxCell>
        <mxCell id="dvMq7z_w7fG76Abtl-HF-301" style="shape=partialRectangle;connectable=0;fillColor=none;top=0;left=0;bottom=0;right=0;editable=1;overflow=hidden;whiteSpace=wrap;html=1;sketch=1;curveFitting=1;jiggle=2;shadow=0;strokeColor=#666666;fontFamily=Comic Sans MS;fontSize=15;" parent="dvMq7z_w7fG76Abtl-HF-300" vertex="1">
          <mxGeometry width="30" height="30" as="geometry">
            <mxRectangle width="30" height="30" as="alternateBounds" />
          </mxGeometry>
        </mxCell>
        <mxCell id="dvMq7z_w7fG76Abtl-HF-302" value="stock_quantity" style="shape=partialRectangle;connectable=0;fillColor=none;top=0;left=0;bottom=0;right=0;align=left;spacingLeft=6;overflow=hidden;whiteSpace=wrap;html=1;sketch=1;curveFitting=1;jiggle=2;shadow=0;strokeColor=#666666;fontFamily=Comic Sans MS;fontSize=15;" parent="dvMq7z_w7fG76Abtl-HF-300" vertex="1">
          <mxGeometry x="30" width="110" height="30" as="geometry">
            <mxRectangle width="110" height="30" as="alternateBounds" />
          </mxGeometry>
        </mxCell>
        <mxCell id="dvMq7z_w7fG76Abtl-HF-303" value="int" style="shape=partialRectangle;connectable=0;fillColor=none;top=0;left=0;bottom=0;right=0;align=left;spacingLeft=6;overflow=hidden;whiteSpace=wrap;html=1;sketch=1;curveFitting=1;jiggle=2;shadow=0;strokeColor=#666666;fontFamily=Comic Sans MS;fontSize=15;" parent="dvMq7z_w7fG76Abtl-HF-300" vertex="1">
          <mxGeometry x="140" width="113" height="30" as="geometry">
            <mxRectangle width="113" height="30" as="alternateBounds" />
          </mxGeometry>
        </mxCell>
        <mxCell id="dvMq7z_w7fG76Abtl-HF-304" value="no" style="shape=partialRectangle;connectable=0;fillColor=none;top=0;left=0;bottom=0;right=0;align=left;spacingLeft=6;overflow=hidden;whiteSpace=wrap;html=1;sketch=1;curveFitting=1;jiggle=2;shadow=0;strokeColor=#666666;fontFamily=Comic Sans MS;fontSize=15;" parent="dvMq7z_w7fG76Abtl-HF-300" vertex="1">
          <mxGeometry x="253" width="70" height="30" as="geometry">
            <mxRectangle width="70" height="30" as="alternateBounds" />
          </mxGeometry>
        </mxCell>
        <mxCell id="dvMq7z_w7fG76Abtl-HF-310" value="&lt;font style=&quot;font-size: 18px;&quot;&gt;Categories&lt;/font&gt;" style="shape=table;startSize=30;container=1;collapsible=1;childLayout=tableLayout;fixedRows=1;rowLines=0;fontStyle=1;align=center;resizeLast=1;html=1;sketch=1;curveFitting=1;jiggle=2;shadow=0;strokeColor=#666666;fontFamily=Comic Sans MS;fillColor=#f5f5f5;fontColor=#333333;" parent="1" vertex="1">
          <mxGeometry x="-856" y="10" width="380" height="180" as="geometry" />
        </mxCell>
        <mxCell id="dvMq7z_w7fG76Abtl-HF-311" value="" style="shape=tableRow;horizontal=0;startSize=0;swimlaneHead=0;swimlaneBody=0;fillColor=none;collapsible=0;dropTarget=0;points=[[0,0.5],[1,0.5]];portConstraint=eastwest;top=0;left=0;right=0;bottom=1;sketch=1;curveFitting=1;jiggle=2;shadow=0;strokeColor=#666666;fontFamily=Comic Sans MS;" parent="dvMq7z_w7fG76Abtl-HF-310" vertex="1">
          <mxGeometry y="30" width="380" height="30" as="geometry" />
        </mxCell>
        <mxCell id="dvMq7z_w7fG76Abtl-HF-312" value="" style="shape=partialRectangle;connectable=0;fillColor=none;top=0;left=0;bottom=0;right=0;fontStyle=1;overflow=hidden;whiteSpace=wrap;html=1;sketch=1;curveFitting=1;jiggle=2;shadow=0;strokeColor=#666666;fontFamily=Comic Sans MS;fontSize=15;" parent="dvMq7z_w7fG76Abtl-HF-311" vertex="1">
          <mxGeometry width="30" height="30" as="geometry">
            <mxRectangle width="30" height="30" as="alternateBounds" />
          </mxGeometry>
        </mxCell>
        <mxCell id="dvMq7z_w7fG76Abtl-HF-313" value="&lt;font style=&quot;font-size: 15px;&quot;&gt;Field&lt;/font&gt;" style="shape=partialRectangle;connectable=0;fillColor=none;top=0;left=0;bottom=0;right=0;align=left;spacingLeft=6;fontStyle=5;overflow=hidden;whiteSpace=wrap;html=1;sketch=1;curveFitting=1;jiggle=2;shadow=0;strokeColor=#666666;fontFamily=Comic Sans MS;fontSize=15;" parent="dvMq7z_w7fG76Abtl-HF-311" vertex="1">
          <mxGeometry x="30" width="160" height="30" as="geometry">
            <mxRectangle width="160" height="30" as="alternateBounds" />
          </mxGeometry>
        </mxCell>
        <mxCell id="dvMq7z_w7fG76Abtl-HF-314" value="&lt;font style=&quot;font-size: 15px;&quot;&gt;Type&lt;/font&gt;" style="shape=partialRectangle;connectable=0;fillColor=none;top=0;left=0;bottom=0;right=0;align=left;spacingLeft=6;fontStyle=5;overflow=hidden;whiteSpace=wrap;html=1;sketch=1;curveFitting=1;jiggle=2;shadow=0;strokeColor=#666666;fontFamily=Comic Sans MS;fontSize=15;" parent="dvMq7z_w7fG76Abtl-HF-311" vertex="1">
          <mxGeometry x="190" width="110" height="30" as="geometry">
            <mxRectangle width="110" height="30" as="alternateBounds" />
          </mxGeometry>
        </mxCell>
        <mxCell id="dvMq7z_w7fG76Abtl-HF-315" value="&lt;font style=&quot;font-size: 15px;&quot;&gt;Nullable&lt;/font&gt;" style="shape=partialRectangle;connectable=0;fillColor=none;top=0;left=0;bottom=0;right=0;align=left;spacingLeft=6;fontStyle=5;overflow=hidden;whiteSpace=wrap;html=1;sketch=1;curveFitting=1;jiggle=2;shadow=0;strokeColor=#666666;fontFamily=Comic Sans MS;fontSize=15;" parent="dvMq7z_w7fG76Abtl-HF-311" vertex="1">
          <mxGeometry x="300" width="80" height="30" as="geometry">
            <mxRectangle width="80" height="30" as="alternateBounds" />
          </mxGeometry>
        </mxCell>
        <mxCell id="dvMq7z_w7fG76Abtl-HF-316" value="" style="shape=tableRow;horizontal=0;startSize=0;swimlaneHead=0;swimlaneBody=0;fillColor=none;collapsible=0;dropTarget=0;points=[[0,0.5],[1,0.5]];portConstraint=eastwest;top=0;left=0;right=0;bottom=0;sketch=1;curveFitting=1;jiggle=2;shadow=0;strokeColor=#666666;fontFamily=Comic Sans MS;" parent="dvMq7z_w7fG76Abtl-HF-310" vertex="1">
          <mxGeometry y="60" width="380" height="30" as="geometry" />
        </mxCell>
        <mxCell id="dvMq7z_w7fG76Abtl-HF-317" value="&lt;b style=&quot;font-size: 15px;&quot;&gt;&lt;font style=&quot;font-size: 15px;&quot;&gt;PK&lt;/font&gt;&lt;/b&gt;" style="shape=partialRectangle;connectable=0;fillColor=none;top=0;left=0;bottom=0;right=0;editable=1;overflow=hidden;whiteSpace=wrap;html=1;sketch=1;curveFitting=1;jiggle=2;shadow=0;strokeColor=#666666;fontFamily=Comic Sans MS;fontSize=15;" parent="dvMq7z_w7fG76Abtl-HF-316" vertex="1">
          <mxGeometry width="30" height="30" as="geometry">
            <mxRectangle width="30" height="30" as="alternateBounds" />
          </mxGeometry>
        </mxCell>
        <mxCell id="dvMq7z_w7fG76Abtl-HF-318" value="&lt;b style=&quot;font-size: 15px;&quot;&gt;&lt;font style=&quot;font-size: 15px;&quot;&gt;id&lt;/font&gt;&lt;/b&gt;" style="shape=partialRectangle;connectable=0;fillColor=none;top=0;left=0;bottom=0;right=0;align=left;spacingLeft=6;overflow=hidden;whiteSpace=wrap;html=1;sketch=1;curveFitting=1;jiggle=2;shadow=0;strokeColor=#666666;fontFamily=Comic Sans MS;fontSize=15;" parent="dvMq7z_w7fG76Abtl-HF-316" vertex="1">
          <mxGeometry x="30" width="160" height="30" as="geometry">
            <mxRectangle width="160" height="30" as="alternateBounds" />
          </mxGeometry>
        </mxCell>
        <mxCell id="dvMq7z_w7fG76Abtl-HF-319" value="&lt;font style=&quot;font-size: 15px;&quot;&gt;int&lt;/font&gt;" style="shape=partialRectangle;connectable=0;fillColor=none;top=0;left=0;bottom=0;right=0;align=left;spacingLeft=6;overflow=hidden;whiteSpace=wrap;html=1;sketch=1;curveFitting=1;jiggle=2;shadow=0;strokeColor=#666666;fontFamily=Comic Sans MS;fontSize=15;" parent="dvMq7z_w7fG76Abtl-HF-316" vertex="1">
          <mxGeometry x="190" width="110" height="30" as="geometry">
            <mxRectangle width="110" height="30" as="alternateBounds" />
          </mxGeometry>
        </mxCell>
        <mxCell id="dvMq7z_w7fG76Abtl-HF-320" value="&lt;font style=&quot;font-size: 15px;&quot;&gt;no&lt;/font&gt;" style="shape=partialRectangle;connectable=0;fillColor=none;top=0;left=0;bottom=0;right=0;align=left;spacingLeft=6;overflow=hidden;whiteSpace=wrap;html=1;sketch=1;curveFitting=1;jiggle=2;shadow=0;strokeColor=#666666;fontFamily=Comic Sans MS;fontSize=15;" parent="dvMq7z_w7fG76Abtl-HF-316" vertex="1">
          <mxGeometry x="300" width="80" height="30" as="geometry">
            <mxRectangle width="80" height="30" as="alternateBounds" />
          </mxGeometry>
        </mxCell>
        <mxCell id="dvMq7z_w7fG76Abtl-HF-321" value="" style="shape=tableRow;horizontal=0;startSize=0;swimlaneHead=0;swimlaneBody=0;fillColor=none;collapsible=0;dropTarget=0;points=[[0,0.5],[1,0.5]];portConstraint=eastwest;top=0;left=0;right=0;bottom=0;sketch=1;curveFitting=1;jiggle=2;shadow=0;strokeColor=#666666;fontFamily=Comic Sans MS;" parent="dvMq7z_w7fG76Abtl-HF-310" vertex="1">
          <mxGeometry y="90" width="380" height="30" as="geometry" />
        </mxCell>
        <mxCell id="dvMq7z_w7fG76Abtl-HF-322" value="◇" style="shape=partialRectangle;connectable=0;fillColor=none;top=0;left=0;bottom=0;right=0;editable=1;overflow=hidden;whiteSpace=wrap;html=1;sketch=1;curveFitting=1;jiggle=2;shadow=0;strokeColor=#666666;fontFamily=Comic Sans MS;fontSize=15;" parent="dvMq7z_w7fG76Abtl-HF-321" vertex="1">
          <mxGeometry width="30" height="30" as="geometry">
            <mxRectangle width="30" height="30" as="alternateBounds" />
          </mxGeometry>
        </mxCell>
        <mxCell id="dvMq7z_w7fG76Abtl-HF-323" value="name" style="shape=partialRectangle;connectable=0;fillColor=none;top=0;left=0;bottom=0;right=0;align=left;spacingLeft=6;overflow=hidden;whiteSpace=wrap;html=1;sketch=1;curveFitting=1;jiggle=2;shadow=0;strokeColor=#666666;fontFamily=Comic Sans MS;fontSize=15;" parent="dvMq7z_w7fG76Abtl-HF-321" vertex="1">
          <mxGeometry x="30" width="160" height="30" as="geometry">
            <mxRectangle width="160" height="30" as="alternateBounds" />
          </mxGeometry>
        </mxCell>
        <mxCell id="dvMq7z_w7fG76Abtl-HF-324" value="varchar(100)" style="shape=partialRectangle;connectable=0;fillColor=none;top=0;left=0;bottom=0;right=0;align=left;spacingLeft=6;overflow=hidden;whiteSpace=wrap;html=1;sketch=1;curveFitting=1;jiggle=2;shadow=0;strokeColor=#666666;fontFamily=Comic Sans MS;fontSize=15;" parent="dvMq7z_w7fG76Abtl-HF-321" vertex="1">
          <mxGeometry x="190" width="110" height="30" as="geometry">
            <mxRectangle width="110" height="30" as="alternateBounds" />
          </mxGeometry>
        </mxCell>
        <mxCell id="dvMq7z_w7fG76Abtl-HF-325" value="&lt;font style=&quot;font-size: 15px;&quot;&gt;no&lt;/font&gt;" style="shape=partialRectangle;connectable=0;fillColor=none;top=0;left=0;bottom=0;right=0;align=left;spacingLeft=6;overflow=hidden;whiteSpace=wrap;html=1;sketch=1;curveFitting=1;jiggle=2;shadow=0;strokeColor=#666666;fontFamily=Comic Sans MS;fontSize=15;" parent="dvMq7z_w7fG76Abtl-HF-321" vertex="1">
          <mxGeometry x="300" width="80" height="30" as="geometry">
            <mxRectangle width="80" height="30" as="alternateBounds" />
          </mxGeometry>
        </mxCell>
        <mxCell id="dvMq7z_w7fG76Abtl-HF-326" value="" style="shape=tableRow;horizontal=0;startSize=0;swimlaneHead=0;swimlaneBody=0;fillColor=none;collapsible=0;dropTarget=0;points=[[0,0.5],[1,0.5]];portConstraint=eastwest;top=0;left=0;right=0;bottom=0;sketch=1;curveFitting=1;jiggle=2;shadow=0;strokeColor=#666666;fontFamily=Comic Sans MS;" parent="dvMq7z_w7fG76Abtl-HF-310" vertex="1">
          <mxGeometry y="120" width="380" height="30" as="geometry" />
        </mxCell>
        <mxCell id="dvMq7z_w7fG76Abtl-HF-327" value="◇" style="shape=partialRectangle;connectable=0;fillColor=none;top=0;left=0;bottom=0;right=0;editable=1;overflow=hidden;whiteSpace=wrap;html=1;sketch=1;curveFitting=1;jiggle=2;shadow=0;strokeColor=#666666;fontFamily=Comic Sans MS;fontSize=15;" parent="dvMq7z_w7fG76Abtl-HF-326" vertex="1">
          <mxGeometry width="30" height="30" as="geometry">
            <mxRectangle width="30" height="30" as="alternateBounds" />
          </mxGeometry>
        </mxCell>
        <mxCell id="dvMq7z_w7fG76Abtl-HF-328" value="code" style="shape=partialRectangle;connectable=0;fillColor=none;top=0;left=0;bottom=0;right=0;align=left;spacingLeft=6;overflow=hidden;whiteSpace=wrap;html=1;sketch=1;curveFitting=1;jiggle=2;shadow=0;strokeColor=#666666;fontFamily=Comic Sans MS;fontSize=15;" parent="dvMq7z_w7fG76Abtl-HF-326" vertex="1">
          <mxGeometry x="30" width="160" height="30" as="geometry">
            <mxRectangle width="160" height="30" as="alternateBounds" />
          </mxGeometry>
        </mxCell>
        <mxCell id="dvMq7z_w7fG76Abtl-HF-329" value="&lt;font style=&quot;font-size: 15px;&quot;&gt;int&lt;/font&gt;" style="shape=partialRectangle;connectable=0;fillColor=none;top=0;left=0;bottom=0;right=0;align=left;spacingLeft=6;overflow=hidden;whiteSpace=wrap;html=1;sketch=1;curveFitting=1;jiggle=2;shadow=0;strokeColor=#666666;fontFamily=Comic Sans MS;fontSize=15;" parent="dvMq7z_w7fG76Abtl-HF-326" vertex="1">
          <mxGeometry x="190" width="110" height="30" as="geometry">
            <mxRectangle width="110" height="30" as="alternateBounds" />
          </mxGeometry>
        </mxCell>
        <mxCell id="dvMq7z_w7fG76Abtl-HF-330" value="&lt;font style=&quot;font-size: 15px;&quot;&gt;no&lt;/font&gt;" style="shape=partialRectangle;connectable=0;fillColor=none;top=0;left=0;bottom=0;right=0;align=left;spacingLeft=6;overflow=hidden;whiteSpace=wrap;html=1;sketch=1;curveFitting=1;jiggle=2;shadow=0;strokeColor=#666666;fontFamily=Comic Sans MS;fontSize=15;" parent="dvMq7z_w7fG76Abtl-HF-326" vertex="1">
          <mxGeometry x="300" width="80" height="30" as="geometry">
            <mxRectangle width="80" height="30" as="alternateBounds" />
          </mxGeometry>
        </mxCell>
        <mxCell id="dvMq7z_w7fG76Abtl-HF-331" style="shape=tableRow;horizontal=0;startSize=0;swimlaneHead=0;swimlaneBody=0;fillColor=none;collapsible=0;dropTarget=0;points=[[0,0.5],[1,0.5]];portConstraint=eastwest;top=0;left=0;right=0;bottom=0;sketch=1;curveFitting=1;jiggle=2;shadow=0;strokeColor=#666666;fontFamily=Comic Sans MS;" parent="dvMq7z_w7fG76Abtl-HF-310" vertex="1">
          <mxGeometry y="150" width="380" height="30" as="geometry" />
        </mxCell>
        <mxCell id="dvMq7z_w7fG76Abtl-HF-332" value="◇" style="shape=partialRectangle;connectable=0;fillColor=none;top=0;left=0;bottom=0;right=0;editable=1;overflow=hidden;whiteSpace=wrap;html=1;sketch=1;curveFitting=1;jiggle=2;shadow=0;strokeColor=#666666;fontFamily=Comic Sans MS;fontSize=15;" parent="dvMq7z_w7fG76Abtl-HF-331" vertex="1">
          <mxGeometry width="30" height="30" as="geometry">
            <mxRectangle width="30" height="30" as="alternateBounds" />
          </mxGeometry>
        </mxCell>
        <mxCell id="dvMq7z_w7fG76Abtl-HF-333" value="parent_category_id" style="shape=partialRectangle;connectable=0;fillColor=none;top=0;left=0;bottom=0;right=0;align=left;spacingLeft=6;overflow=hidden;whiteSpace=wrap;html=1;sketch=1;curveFitting=1;jiggle=2;shadow=0;strokeColor=#666666;fontFamily=Comic Sans MS;fontSize=15;" parent="dvMq7z_w7fG76Abtl-HF-331" vertex="1">
          <mxGeometry x="30" width="160" height="30" as="geometry">
            <mxRectangle width="160" height="30" as="alternateBounds" />
          </mxGeometry>
        </mxCell>
        <mxCell id="dvMq7z_w7fG76Abtl-HF-334" value="&lt;font style=&quot;font-size: 15px;&quot;&gt;int&lt;/font&gt;" style="shape=partialRectangle;connectable=0;fillColor=none;top=0;left=0;bottom=0;right=0;align=left;spacingLeft=6;overflow=hidden;whiteSpace=wrap;html=1;sketch=1;curveFitting=1;jiggle=2;shadow=0;strokeColor=#666666;fontFamily=Comic Sans MS;fontSize=15;" parent="dvMq7z_w7fG76Abtl-HF-331" vertex="1">
          <mxGeometry x="190" width="110" height="30" as="geometry">
            <mxRectangle width="110" height="30" as="alternateBounds" />
          </mxGeometry>
        </mxCell>
        <mxCell id="dvMq7z_w7fG76Abtl-HF-335" value="&lt;font style=&quot;font-size: 15px;&quot;&gt;no&lt;/font&gt;" style="shape=partialRectangle;connectable=0;fillColor=none;top=0;left=0;bottom=0;right=0;align=left;spacingLeft=6;overflow=hidden;whiteSpace=wrap;html=1;sketch=1;curveFitting=1;jiggle=2;shadow=0;strokeColor=#666666;fontFamily=Comic Sans MS;fontSize=15;" parent="dvMq7z_w7fG76Abtl-HF-331" vertex="1">
          <mxGeometry x="300" width="80" height="30" as="geometry">
            <mxRectangle width="80" height="30" as="alternateBounds" />
          </mxGeometry>
        </mxCell>
        <mxCell id="dvMq7z_w7fG76Abtl-HF-341" value="&lt;font style=&quot;font-size: 18px;&quot;&gt;Cart&lt;/font&gt;" style="shape=table;startSize=30;container=1;collapsible=1;childLayout=tableLayout;fixedRows=1;rowLines=0;fontStyle=1;align=center;resizeLast=1;html=1;sketch=1;curveFitting=1;jiggle=2;shadow=0;strokeColor=#666666;fontFamily=Comic Sans MS;fillColor=#f5f5f5;fontColor=#333333;" parent="1" vertex="1">
          <mxGeometry x="480" y="-294" width="300" height="120" as="geometry" />
        </mxCell>
        <mxCell id="dvMq7z_w7fG76Abtl-HF-342" value="" style="shape=tableRow;horizontal=0;startSize=0;swimlaneHead=0;swimlaneBody=0;fillColor=none;collapsible=0;dropTarget=0;points=[[0,0.5],[1,0.5]];portConstraint=eastwest;top=0;left=0;right=0;bottom=1;sketch=1;curveFitting=1;jiggle=2;shadow=0;strokeColor=#666666;fontFamily=Comic Sans MS;" parent="dvMq7z_w7fG76Abtl-HF-341" vertex="1">
          <mxGeometry y="30" width="300" height="30" as="geometry" />
        </mxCell>
        <mxCell id="dvMq7z_w7fG76Abtl-HF-343" value="" style="shape=partialRectangle;connectable=0;fillColor=none;top=0;left=0;bottom=0;right=0;fontStyle=1;overflow=hidden;whiteSpace=wrap;html=1;sketch=1;curveFitting=1;jiggle=2;shadow=0;strokeColor=#666666;fontFamily=Comic Sans MS;strokeWidth=1;fontSize=15;" parent="dvMq7z_w7fG76Abtl-HF-342" vertex="1">
          <mxGeometry width="30" height="30" as="geometry">
            <mxRectangle width="30" height="30" as="alternateBounds" />
          </mxGeometry>
        </mxCell>
        <mxCell id="dvMq7z_w7fG76Abtl-HF-344" value="&lt;font style=&quot;font-size: 15px;&quot;&gt;Field&lt;/font&gt;" style="shape=partialRectangle;connectable=0;fillColor=none;top=0;left=0;bottom=0;right=0;align=left;spacingLeft=6;fontStyle=5;overflow=hidden;whiteSpace=wrap;html=1;sketch=1;curveFitting=1;jiggle=2;shadow=0;strokeColor=#666666;fontFamily=Comic Sans MS;strokeWidth=1;fontSize=15;" parent="dvMq7z_w7fG76Abtl-HF-342" vertex="1">
          <mxGeometry x="30" width="110" height="30" as="geometry">
            <mxRectangle width="110" height="30" as="alternateBounds" />
          </mxGeometry>
        </mxCell>
        <mxCell id="dvMq7z_w7fG76Abtl-HF-345" value="&lt;font style=&quot;font-size: 15px;&quot;&gt;Type&lt;/font&gt;" style="shape=partialRectangle;connectable=0;fillColor=none;top=0;left=0;bottom=0;right=0;align=left;spacingLeft=6;fontStyle=5;overflow=hidden;whiteSpace=wrap;html=1;sketch=1;curveFitting=1;jiggle=2;shadow=0;strokeColor=#666666;fontFamily=Comic Sans MS;strokeWidth=1;fontSize=15;" parent="dvMq7z_w7fG76Abtl-HF-342" vertex="1">
          <mxGeometry x="140" width="90" height="30" as="geometry">
            <mxRectangle width="90" height="30" as="alternateBounds" />
          </mxGeometry>
        </mxCell>
        <mxCell id="dvMq7z_w7fG76Abtl-HF-346" value="&lt;font style=&quot;font-size: 15px;&quot;&gt;Nullable&lt;/font&gt;" style="shape=partialRectangle;connectable=0;fillColor=none;top=0;left=0;bottom=0;right=0;align=left;spacingLeft=6;fontStyle=5;overflow=hidden;whiteSpace=wrap;html=1;sketch=1;curveFitting=1;jiggle=2;shadow=0;strokeColor=#666666;fontFamily=Comic Sans MS;strokeWidth=1;fontSize=15;" parent="dvMq7z_w7fG76Abtl-HF-342" vertex="1">
          <mxGeometry x="230" width="70" height="30" as="geometry">
            <mxRectangle width="70" height="30" as="alternateBounds" />
          </mxGeometry>
        </mxCell>
        <mxCell id="dvMq7z_w7fG76Abtl-HF-347" value="" style="shape=tableRow;horizontal=0;startSize=0;swimlaneHead=0;swimlaneBody=0;fillColor=none;collapsible=0;dropTarget=0;points=[[0,0.5],[1,0.5]];portConstraint=eastwest;top=0;left=0;right=0;bottom=0;sketch=1;curveFitting=1;jiggle=2;shadow=0;strokeColor=#666666;fontFamily=Comic Sans MS;" parent="dvMq7z_w7fG76Abtl-HF-341" vertex="1">
          <mxGeometry y="60" width="300" height="30" as="geometry" />
        </mxCell>
        <mxCell id="dvMq7z_w7fG76Abtl-HF-348" value="&lt;b style=&quot;font-size: 15px;&quot;&gt;&lt;font style=&quot;font-size: 15px;&quot;&gt;PK&lt;/font&gt;&lt;/b&gt;" style="shape=partialRectangle;connectable=0;fillColor=none;top=0;left=0;bottom=0;right=0;editable=1;overflow=hidden;whiteSpace=wrap;html=1;sketch=1;curveFitting=1;jiggle=2;shadow=0;strokeColor=#666666;fontFamily=Comic Sans MS;strokeWidth=1;fontSize=15;" parent="dvMq7z_w7fG76Abtl-HF-347" vertex="1">
          <mxGeometry width="30" height="30" as="geometry">
            <mxRectangle width="30" height="30" as="alternateBounds" />
          </mxGeometry>
        </mxCell>
        <mxCell id="dvMq7z_w7fG76Abtl-HF-349" value="&lt;b style=&quot;font-size: 15px;&quot;&gt;&lt;font style=&quot;font-size: 15px;&quot;&gt;id&lt;/font&gt;&lt;/b&gt;" style="shape=partialRectangle;connectable=0;fillColor=none;top=0;left=0;bottom=0;right=0;align=left;spacingLeft=6;overflow=hidden;whiteSpace=wrap;html=1;sketch=1;curveFitting=1;jiggle=2;shadow=0;strokeColor=#666666;fontFamily=Comic Sans MS;strokeWidth=1;fontSize=15;" parent="dvMq7z_w7fG76Abtl-HF-347" vertex="1">
          <mxGeometry x="30" width="110" height="30" as="geometry">
            <mxRectangle width="110" height="30" as="alternateBounds" />
          </mxGeometry>
        </mxCell>
        <mxCell id="dvMq7z_w7fG76Abtl-HF-350" value="&lt;font style=&quot;font-size: 15px;&quot;&gt;int&lt;/font&gt;" style="shape=partialRectangle;connectable=0;fillColor=none;top=0;left=0;bottom=0;right=0;align=left;spacingLeft=6;overflow=hidden;whiteSpace=wrap;html=1;sketch=1;curveFitting=1;jiggle=2;shadow=0;strokeColor=#666666;fontFamily=Comic Sans MS;strokeWidth=1;fontSize=15;" parent="dvMq7z_w7fG76Abtl-HF-347" vertex="1">
          <mxGeometry x="140" width="90" height="30" as="geometry">
            <mxRectangle width="90" height="30" as="alternateBounds" />
          </mxGeometry>
        </mxCell>
        <mxCell id="dvMq7z_w7fG76Abtl-HF-351" value="&lt;font style=&quot;font-size: 15px;&quot;&gt;no&lt;/font&gt;" style="shape=partialRectangle;connectable=0;fillColor=none;top=0;left=0;bottom=0;right=0;align=left;spacingLeft=6;overflow=hidden;whiteSpace=wrap;html=1;sketch=1;curveFitting=1;jiggle=2;shadow=0;strokeColor=#666666;fontFamily=Comic Sans MS;strokeWidth=1;fontSize=15;" parent="dvMq7z_w7fG76Abtl-HF-347" vertex="1">
          <mxGeometry x="230" width="70" height="30" as="geometry">
            <mxRectangle width="70" height="30" as="alternateBounds" />
          </mxGeometry>
        </mxCell>
        <mxCell id="dvMq7z_w7fG76Abtl-HF-352" value="" style="shape=tableRow;horizontal=0;startSize=0;swimlaneHead=0;swimlaneBody=0;fillColor=none;collapsible=0;dropTarget=0;points=[[0,0.5],[1,0.5]];portConstraint=eastwest;top=0;left=0;right=0;bottom=0;sketch=1;curveFitting=1;jiggle=2;shadow=0;strokeColor=#666666;fontFamily=Comic Sans MS;" parent="dvMq7z_w7fG76Abtl-HF-341" vertex="1">
          <mxGeometry y="90" width="300" height="30" as="geometry" />
        </mxCell>
        <mxCell id="dvMq7z_w7fG76Abtl-HF-353" value="◇" style="shape=partialRectangle;connectable=0;fillColor=none;top=0;left=0;bottom=0;right=0;editable=1;overflow=hidden;whiteSpace=wrap;html=1;sketch=1;curveFitting=1;jiggle=2;shadow=0;strokeColor=#666666;fontFamily=Comic Sans MS;strokeWidth=1;fontSize=15;" parent="dvMq7z_w7fG76Abtl-HF-352" vertex="1">
          <mxGeometry width="30" height="30" as="geometry">
            <mxRectangle width="30" height="30" as="alternateBounds" />
          </mxGeometry>
        </mxCell>
        <mxCell id="dvMq7z_w7fG76Abtl-HF-354" value="user_id" style="shape=partialRectangle;connectable=0;fillColor=none;top=0;left=0;bottom=0;right=0;align=left;spacingLeft=6;overflow=hidden;whiteSpace=wrap;html=1;sketch=1;curveFitting=1;jiggle=2;shadow=0;strokeColor=#666666;fontFamily=Comic Sans MS;strokeWidth=1;fontSize=15;" parent="dvMq7z_w7fG76Abtl-HF-352" vertex="1">
          <mxGeometry x="30" width="110" height="30" as="geometry">
            <mxRectangle width="110" height="30" as="alternateBounds" />
          </mxGeometry>
        </mxCell>
        <mxCell id="dvMq7z_w7fG76Abtl-HF-355" value="int" style="shape=partialRectangle;connectable=0;fillColor=none;top=0;left=0;bottom=0;right=0;align=left;spacingLeft=6;overflow=hidden;whiteSpace=wrap;html=1;sketch=1;curveFitting=1;jiggle=2;shadow=0;strokeColor=#666666;fontFamily=Comic Sans MS;strokeWidth=1;fontSize=15;" parent="dvMq7z_w7fG76Abtl-HF-352" vertex="1">
          <mxGeometry x="140" width="90" height="30" as="geometry">
            <mxRectangle width="90" height="30" as="alternateBounds" />
          </mxGeometry>
        </mxCell>
        <mxCell id="dvMq7z_w7fG76Abtl-HF-356" value="&lt;font style=&quot;font-size: 15px;&quot;&gt;no&lt;/font&gt;" style="shape=partialRectangle;connectable=0;fillColor=none;top=0;left=0;bottom=0;right=0;align=left;spacingLeft=6;overflow=hidden;whiteSpace=wrap;html=1;sketch=1;curveFitting=1;jiggle=2;shadow=0;strokeColor=#666666;fontFamily=Comic Sans MS;strokeWidth=1;fontSize=15;" parent="dvMq7z_w7fG76Abtl-HF-352" vertex="1">
          <mxGeometry x="230" width="70" height="30" as="geometry">
            <mxRectangle width="70" height="30" as="alternateBounds" />
          </mxGeometry>
        </mxCell>
        <mxCell id="dvMq7z_w7fG76Abtl-HF-382" value="&lt;font style=&quot;font-size: 18px;&quot;&gt;CartItems&lt;/font&gt;" style="shape=table;startSize=30;container=1;collapsible=1;childLayout=tableLayout;fixedRows=1;rowLines=0;fontStyle=1;align=center;resizeLast=1;html=1;sketch=1;curveFitting=1;jiggle=2;shadow=0;strokeColor=#666666;fontFamily=Comic Sans MS;fillColor=#f5f5f5;fontColor=#333333;" parent="1" vertex="1">
          <mxGeometry x="-400" y="-300" width="300" height="210" as="geometry" />
        </mxCell>
        <mxCell id="dvMq7z_w7fG76Abtl-HF-383" value="" style="shape=tableRow;horizontal=0;startSize=0;swimlaneHead=0;swimlaneBody=0;fillColor=none;collapsible=0;dropTarget=0;points=[[0,0.5],[1,0.5]];portConstraint=eastwest;top=0;left=0;right=0;bottom=1;sketch=1;curveFitting=1;jiggle=2;shadow=0;strokeColor=#666666;fontFamily=Comic Sans MS;" parent="dvMq7z_w7fG76Abtl-HF-382" vertex="1">
          <mxGeometry y="30" width="300" height="30" as="geometry" />
        </mxCell>
        <mxCell id="dvMq7z_w7fG76Abtl-HF-384" value="" style="shape=partialRectangle;connectable=0;fillColor=none;top=0;left=0;bottom=0;right=0;fontStyle=1;overflow=hidden;whiteSpace=wrap;html=1;sketch=1;curveFitting=1;jiggle=2;shadow=0;strokeColor=#666666;fontFamily=Comic Sans MS;fontSize=15;" parent="dvMq7z_w7fG76Abtl-HF-383" vertex="1">
          <mxGeometry width="30" height="30" as="geometry">
            <mxRectangle width="30" height="30" as="alternateBounds" />
          </mxGeometry>
        </mxCell>
        <mxCell id="dvMq7z_w7fG76Abtl-HF-385" value="&lt;font style=&quot;font-size: 15px;&quot;&gt;Field&lt;/font&gt;" style="shape=partialRectangle;connectable=0;fillColor=none;top=0;left=0;bottom=0;right=0;align=left;spacingLeft=6;fontStyle=5;overflow=hidden;whiteSpace=wrap;html=1;sketch=1;curveFitting=1;jiggle=2;shadow=0;strokeColor=#666666;fontFamily=Comic Sans MS;fontSize=15;" parent="dvMq7z_w7fG76Abtl-HF-383" vertex="1">
          <mxGeometry x="30" width="110" height="30" as="geometry">
            <mxRectangle width="110" height="30" as="alternateBounds" />
          </mxGeometry>
        </mxCell>
        <mxCell id="dvMq7z_w7fG76Abtl-HF-386" value="&lt;font style=&quot;font-size: 15px;&quot;&gt;Type&lt;/font&gt;" style="shape=partialRectangle;connectable=0;fillColor=none;top=0;left=0;bottom=0;right=0;align=left;spacingLeft=6;fontStyle=5;overflow=hidden;whiteSpace=wrap;html=1;sketch=1;curveFitting=1;jiggle=2;shadow=0;strokeColor=#666666;fontFamily=Comic Sans MS;fontSize=15;" parent="dvMq7z_w7fG76Abtl-HF-383" vertex="1">
          <mxGeometry x="140" width="90" height="30" as="geometry">
            <mxRectangle width="90" height="30" as="alternateBounds" />
          </mxGeometry>
        </mxCell>
        <mxCell id="dvMq7z_w7fG76Abtl-HF-387" value="&lt;font style=&quot;font-size: 15px;&quot;&gt;Nullable&lt;/font&gt;" style="shape=partialRectangle;connectable=0;fillColor=none;top=0;left=0;bottom=0;right=0;align=left;spacingLeft=6;fontStyle=5;overflow=hidden;whiteSpace=wrap;html=1;sketch=1;curveFitting=1;jiggle=2;shadow=0;strokeColor=#666666;fontFamily=Comic Sans MS;fontSize=15;" parent="dvMq7z_w7fG76Abtl-HF-383" vertex="1">
          <mxGeometry x="230" width="70" height="30" as="geometry">
            <mxRectangle width="70" height="30" as="alternateBounds" />
          </mxGeometry>
        </mxCell>
        <mxCell id="dvMq7z_w7fG76Abtl-HF-388" value="" style="shape=tableRow;horizontal=0;startSize=0;swimlaneHead=0;swimlaneBody=0;fillColor=none;collapsible=0;dropTarget=0;points=[[0,0.5],[1,0.5]];portConstraint=eastwest;top=0;left=0;right=0;bottom=0;sketch=1;curveFitting=1;jiggle=2;shadow=0;strokeColor=#666666;fontFamily=Comic Sans MS;" parent="dvMq7z_w7fG76Abtl-HF-382" vertex="1">
          <mxGeometry y="60" width="300" height="30" as="geometry" />
        </mxCell>
        <mxCell id="dvMq7z_w7fG76Abtl-HF-389" value="&lt;b style=&quot;font-size: 15px;&quot;&gt;&lt;font style=&quot;font-size: 15px;&quot;&gt;PK&lt;/font&gt;&lt;/b&gt;" style="shape=partialRectangle;connectable=0;fillColor=none;top=0;left=0;bottom=0;right=0;editable=1;overflow=hidden;whiteSpace=wrap;html=1;sketch=1;curveFitting=1;jiggle=2;shadow=0;strokeColor=#666666;fontFamily=Comic Sans MS;fontSize=15;" parent="dvMq7z_w7fG76Abtl-HF-388" vertex="1">
          <mxGeometry width="30" height="30" as="geometry">
            <mxRectangle width="30" height="30" as="alternateBounds" />
          </mxGeometry>
        </mxCell>
        <mxCell id="dvMq7z_w7fG76Abtl-HF-390" value="&lt;b style=&quot;font-size: 15px;&quot;&gt;&lt;font style=&quot;font-size: 15px;&quot;&gt;id&lt;/font&gt;&lt;/b&gt;" style="shape=partialRectangle;connectable=0;fillColor=none;top=0;left=0;bottom=0;right=0;align=left;spacingLeft=6;overflow=hidden;whiteSpace=wrap;html=1;sketch=1;curveFitting=1;jiggle=2;shadow=0;strokeColor=#666666;fontFamily=Comic Sans MS;fontSize=15;" parent="dvMq7z_w7fG76Abtl-HF-388" vertex="1">
          <mxGeometry x="30" width="110" height="30" as="geometry">
            <mxRectangle width="110" height="30" as="alternateBounds" />
          </mxGeometry>
        </mxCell>
        <mxCell id="dvMq7z_w7fG76Abtl-HF-391" value="&lt;font style=&quot;font-size: 15px;&quot;&gt;int&lt;/font&gt;" style="shape=partialRectangle;connectable=0;fillColor=none;top=0;left=0;bottom=0;right=0;align=left;spacingLeft=6;overflow=hidden;whiteSpace=wrap;html=1;sketch=1;curveFitting=1;jiggle=2;shadow=0;strokeColor=#666666;fontFamily=Comic Sans MS;fontSize=15;" parent="dvMq7z_w7fG76Abtl-HF-388" vertex="1">
          <mxGeometry x="140" width="90" height="30" as="geometry">
            <mxRectangle width="90" height="30" as="alternateBounds" />
          </mxGeometry>
        </mxCell>
        <mxCell id="dvMq7z_w7fG76Abtl-HF-392" value="&lt;font style=&quot;font-size: 15px;&quot;&gt;no&lt;/font&gt;" style="shape=partialRectangle;connectable=0;fillColor=none;top=0;left=0;bottom=0;right=0;align=left;spacingLeft=6;overflow=hidden;whiteSpace=wrap;html=1;sketch=1;curveFitting=1;jiggle=2;shadow=0;strokeColor=#666666;fontFamily=Comic Sans MS;fontSize=15;" parent="dvMq7z_w7fG76Abtl-HF-388" vertex="1">
          <mxGeometry x="230" width="70" height="30" as="geometry">
            <mxRectangle width="70" height="30" as="alternateBounds" />
          </mxGeometry>
        </mxCell>
        <mxCell id="dvMq7z_w7fG76Abtl-HF-393" value="" style="shape=tableRow;horizontal=0;startSize=0;swimlaneHead=0;swimlaneBody=0;fillColor=none;collapsible=0;dropTarget=0;points=[[0,0.5],[1,0.5]];portConstraint=eastwest;top=0;left=0;right=0;bottom=0;sketch=1;curveFitting=1;jiggle=2;shadow=0;strokeColor=#666666;fontFamily=Comic Sans MS;" parent="dvMq7z_w7fG76Abtl-HF-382" vertex="1">
          <mxGeometry y="90" width="300" height="30" as="geometry" />
        </mxCell>
        <mxCell id="dvMq7z_w7fG76Abtl-HF-394" value="◇" style="shape=partialRectangle;connectable=0;fillColor=none;top=0;left=0;bottom=0;right=0;editable=1;overflow=hidden;whiteSpace=wrap;html=1;sketch=1;curveFitting=1;jiggle=2;shadow=0;strokeColor=#666666;fontFamily=Comic Sans MS;fontSize=15;" parent="dvMq7z_w7fG76Abtl-HF-393" vertex="1">
          <mxGeometry width="30" height="30" as="geometry">
            <mxRectangle width="30" height="30" as="alternateBounds" />
          </mxGeometry>
        </mxCell>
        <mxCell id="dvMq7z_w7fG76Abtl-HF-395" value="cart_id" style="shape=partialRectangle;connectable=0;fillColor=none;top=0;left=0;bottom=0;right=0;align=left;spacingLeft=6;overflow=hidden;whiteSpace=wrap;html=1;sketch=1;curveFitting=1;jiggle=2;shadow=0;strokeColor=#666666;fontFamily=Comic Sans MS;fontSize=15;" parent="dvMq7z_w7fG76Abtl-HF-393" vertex="1">
          <mxGeometry x="30" width="110" height="30" as="geometry">
            <mxRectangle width="110" height="30" as="alternateBounds" />
          </mxGeometry>
        </mxCell>
        <mxCell id="dvMq7z_w7fG76Abtl-HF-396" value="int" style="shape=partialRectangle;connectable=0;fillColor=none;top=0;left=0;bottom=0;right=0;align=left;spacingLeft=6;overflow=hidden;whiteSpace=wrap;html=1;sketch=1;curveFitting=1;jiggle=2;shadow=0;strokeColor=#666666;fontFamily=Comic Sans MS;fontSize=15;" parent="dvMq7z_w7fG76Abtl-HF-393" vertex="1">
          <mxGeometry x="140" width="90" height="30" as="geometry">
            <mxRectangle width="90" height="30" as="alternateBounds" />
          </mxGeometry>
        </mxCell>
        <mxCell id="dvMq7z_w7fG76Abtl-HF-397" value="&lt;font style=&quot;font-size: 15px;&quot;&gt;no&lt;/font&gt;" style="shape=partialRectangle;connectable=0;fillColor=none;top=0;left=0;bottom=0;right=0;align=left;spacingLeft=6;overflow=hidden;whiteSpace=wrap;html=1;sketch=1;curveFitting=1;jiggle=2;shadow=0;strokeColor=#666666;fontFamily=Comic Sans MS;fontSize=15;" parent="dvMq7z_w7fG76Abtl-HF-393" vertex="1">
          <mxGeometry x="230" width="70" height="30" as="geometry">
            <mxRectangle width="70" height="30" as="alternateBounds" />
          </mxGeometry>
        </mxCell>
        <mxCell id="dvMq7z_w7fG76Abtl-HF-398" value="" style="shape=tableRow;horizontal=0;startSize=0;swimlaneHead=0;swimlaneBody=0;fillColor=none;collapsible=0;dropTarget=0;points=[[0,0.5],[1,0.5]];portConstraint=eastwest;top=0;left=0;right=0;bottom=0;sketch=1;curveFitting=1;jiggle=2;shadow=0;strokeColor=#666666;fontFamily=Comic Sans MS;" parent="dvMq7z_w7fG76Abtl-HF-382" vertex="1">
          <mxGeometry y="120" width="300" height="30" as="geometry" />
        </mxCell>
        <mxCell id="dvMq7z_w7fG76Abtl-HF-399" value="◇" style="shape=partialRectangle;connectable=0;fillColor=none;top=0;left=0;bottom=0;right=0;editable=1;overflow=hidden;whiteSpace=wrap;html=1;sketch=1;curveFitting=1;jiggle=2;shadow=0;strokeColor=#666666;fontFamily=Comic Sans MS;fontSize=15;" parent="dvMq7z_w7fG76Abtl-HF-398" vertex="1">
          <mxGeometry width="30" height="30" as="geometry">
            <mxRectangle width="30" height="30" as="alternateBounds" />
          </mxGeometry>
        </mxCell>
        <mxCell id="dvMq7z_w7fG76Abtl-HF-400" value="product_id" style="shape=partialRectangle;connectable=0;fillColor=none;top=0;left=0;bottom=0;right=0;align=left;spacingLeft=6;overflow=hidden;whiteSpace=wrap;html=1;sketch=1;curveFitting=1;jiggle=2;shadow=0;strokeColor=#666666;fontFamily=Comic Sans MS;fontSize=15;" parent="dvMq7z_w7fG76Abtl-HF-398" vertex="1">
          <mxGeometry x="30" width="110" height="30" as="geometry">
            <mxRectangle width="110" height="30" as="alternateBounds" />
          </mxGeometry>
        </mxCell>
        <mxCell id="dvMq7z_w7fG76Abtl-HF-401" value="&lt;font style=&quot;font-size: 15px;&quot;&gt;int&lt;/font&gt;" style="shape=partialRectangle;connectable=0;fillColor=none;top=0;left=0;bottom=0;right=0;align=left;spacingLeft=6;overflow=hidden;whiteSpace=wrap;html=1;sketch=1;curveFitting=1;jiggle=2;shadow=0;strokeColor=#666666;fontFamily=Comic Sans MS;fontSize=15;" parent="dvMq7z_w7fG76Abtl-HF-398" vertex="1">
          <mxGeometry x="140" width="90" height="30" as="geometry">
            <mxRectangle width="90" height="30" as="alternateBounds" />
          </mxGeometry>
        </mxCell>
        <mxCell id="dvMq7z_w7fG76Abtl-HF-402" value="&lt;font style=&quot;font-size: 15px;&quot;&gt;no&lt;/font&gt;" style="shape=partialRectangle;connectable=0;fillColor=none;top=0;left=0;bottom=0;right=0;align=left;spacingLeft=6;overflow=hidden;whiteSpace=wrap;html=1;sketch=1;curveFitting=1;jiggle=2;shadow=0;strokeColor=#666666;fontFamily=Comic Sans MS;fontSize=15;" parent="dvMq7z_w7fG76Abtl-HF-398" vertex="1">
          <mxGeometry x="230" width="70" height="30" as="geometry">
            <mxRectangle width="70" height="30" as="alternateBounds" />
          </mxGeometry>
        </mxCell>
        <mxCell id="dvMq7z_w7fG76Abtl-HF-403" style="shape=tableRow;horizontal=0;startSize=0;swimlaneHead=0;swimlaneBody=0;fillColor=none;collapsible=0;dropTarget=0;points=[[0,0.5],[1,0.5]];portConstraint=eastwest;top=0;left=0;right=0;bottom=0;sketch=1;curveFitting=1;jiggle=2;shadow=0;strokeColor=#666666;fontFamily=Comic Sans MS;" parent="dvMq7z_w7fG76Abtl-HF-382" vertex="1">
          <mxGeometry y="150" width="300" height="30" as="geometry" />
        </mxCell>
        <mxCell id="dvMq7z_w7fG76Abtl-HF-404" value="" style="shape=partialRectangle;connectable=0;fillColor=none;top=0;left=0;bottom=0;right=0;editable=1;overflow=hidden;whiteSpace=wrap;html=1;sketch=1;curveFitting=1;jiggle=2;shadow=0;strokeColor=#666666;fontFamily=Comic Sans MS;fontSize=15;" parent="dvMq7z_w7fG76Abtl-HF-403" vertex="1">
          <mxGeometry width="30" height="30" as="geometry">
            <mxRectangle width="30" height="30" as="alternateBounds" />
          </mxGeometry>
        </mxCell>
        <mxCell id="dvMq7z_w7fG76Abtl-HF-405" value="quantity" style="shape=partialRectangle;connectable=0;fillColor=none;top=0;left=0;bottom=0;right=0;align=left;spacingLeft=6;overflow=hidden;whiteSpace=wrap;html=1;sketch=1;curveFitting=1;jiggle=2;shadow=0;strokeColor=#666666;fontFamily=Comic Sans MS;fontSize=15;" parent="dvMq7z_w7fG76Abtl-HF-403" vertex="1">
          <mxGeometry x="30" width="110" height="30" as="geometry">
            <mxRectangle width="110" height="30" as="alternateBounds" />
          </mxGeometry>
        </mxCell>
        <mxCell id="dvMq7z_w7fG76Abtl-HF-406" value="&lt;font style=&quot;font-size: 15px;&quot;&gt;int&lt;/font&gt;" style="shape=partialRectangle;connectable=0;fillColor=none;top=0;left=0;bottom=0;right=0;align=left;spacingLeft=6;overflow=hidden;whiteSpace=wrap;html=1;sketch=1;curveFitting=1;jiggle=2;shadow=0;strokeColor=#666666;fontFamily=Comic Sans MS;fontSize=15;" parent="dvMq7z_w7fG76Abtl-HF-403" vertex="1">
          <mxGeometry x="140" width="90" height="30" as="geometry">
            <mxRectangle width="90" height="30" as="alternateBounds" />
          </mxGeometry>
        </mxCell>
        <mxCell id="dvMq7z_w7fG76Abtl-HF-407" value="&lt;font style=&quot;font-size: 15px;&quot;&gt;no&lt;/font&gt;" style="shape=partialRectangle;connectable=0;fillColor=none;top=0;left=0;bottom=0;right=0;align=left;spacingLeft=6;overflow=hidden;whiteSpace=wrap;html=1;sketch=1;curveFitting=1;jiggle=2;shadow=0;strokeColor=#666666;fontFamily=Comic Sans MS;fontSize=15;" parent="dvMq7z_w7fG76Abtl-HF-403" vertex="1">
          <mxGeometry x="230" width="70" height="30" as="geometry">
            <mxRectangle width="70" height="30" as="alternateBounds" />
          </mxGeometry>
        </mxCell>
        <mxCell id="dvMq7z_w7fG76Abtl-HF-408" style="shape=tableRow;horizontal=0;startSize=0;swimlaneHead=0;swimlaneBody=0;fillColor=none;collapsible=0;dropTarget=0;points=[[0,0.5],[1,0.5]];portConstraint=eastwest;top=0;left=0;right=0;bottom=0;sketch=1;curveFitting=1;jiggle=2;shadow=0;strokeColor=#666666;fontFamily=Comic Sans MS;" parent="dvMq7z_w7fG76Abtl-HF-382" vertex="1">
          <mxGeometry y="180" width="300" height="30" as="geometry" />
        </mxCell>
        <mxCell id="dvMq7z_w7fG76Abtl-HF-409" style="shape=partialRectangle;connectable=0;fillColor=none;top=0;left=0;bottom=0;right=0;editable=1;overflow=hidden;whiteSpace=wrap;html=1;sketch=1;curveFitting=1;jiggle=2;shadow=0;strokeColor=#666666;fontFamily=Comic Sans MS;fontSize=15;" parent="dvMq7z_w7fG76Abtl-HF-408" vertex="1">
          <mxGeometry width="30" height="30" as="geometry">
            <mxRectangle width="30" height="30" as="alternateBounds" />
          </mxGeometry>
        </mxCell>
        <mxCell id="dvMq7z_w7fG76Abtl-HF-410" value="added_time" style="shape=partialRectangle;connectable=0;fillColor=none;top=0;left=0;bottom=0;right=0;align=left;spacingLeft=6;overflow=hidden;whiteSpace=wrap;html=1;sketch=1;curveFitting=1;jiggle=2;shadow=0;strokeColor=#666666;fontFamily=Comic Sans MS;fontSize=15;" parent="dvMq7z_w7fG76Abtl-HF-408" vertex="1">
          <mxGeometry x="30" width="110" height="30" as="geometry">
            <mxRectangle width="110" height="30" as="alternateBounds" />
          </mxGeometry>
        </mxCell>
        <mxCell id="dvMq7z_w7fG76Abtl-HF-411" value="datetime" style="shape=partialRectangle;connectable=0;fillColor=none;top=0;left=0;bottom=0;right=0;align=left;spacingLeft=6;overflow=hidden;whiteSpace=wrap;html=1;sketch=1;curveFitting=1;jiggle=2;shadow=0;strokeColor=#666666;fontFamily=Comic Sans MS;fontSize=15;" parent="dvMq7z_w7fG76Abtl-HF-408" vertex="1">
          <mxGeometry x="140" width="90" height="30" as="geometry">
            <mxRectangle width="90" height="30" as="alternateBounds" />
          </mxGeometry>
        </mxCell>
        <mxCell id="dvMq7z_w7fG76Abtl-HF-412" value="no" style="shape=partialRectangle;connectable=0;fillColor=none;top=0;left=0;bottom=0;right=0;align=left;spacingLeft=6;overflow=hidden;whiteSpace=wrap;html=1;sketch=1;curveFitting=1;jiggle=2;shadow=0;strokeColor=#666666;fontFamily=Comic Sans MS;fontSize=15;" parent="dvMq7z_w7fG76Abtl-HF-408" vertex="1">
          <mxGeometry x="230" width="70" height="30" as="geometry">
            <mxRectangle width="70" height="30" as="alternateBounds" />
          </mxGeometry>
        </mxCell>
        <mxCell id="dvMq7z_w7fG76Abtl-HF-424" value="" style="edgeStyle=entityRelationEdgeStyle;fontSize=12;html=1;endArrow=ERzeroToMany;startArrow=ERzeroToOne;rounded=0;exitX=0;exitY=0.5;exitDx=0;exitDy=0;strokeWidth=2;endSize=10;startSize=10;entryX=1.008;entryY=0.2;entryDx=0;entryDy=0;entryPerimeter=0;fontFamily=Comic Sans MS;" parent="1" source="dvMq7z_w7fG76Abtl-HF-341" target="dvMq7z_w7fG76Abtl-HF-388" edge="1">
          <mxGeometry width="100" height="100" relative="1" as="geometry">
            <mxPoint x="514.6" y="-380.0000000000001" as="sourcePoint" />
            <mxPoint x="-109.99999999999991" y="-349.34000000000015" as="targetPoint" />
            <Array as="points">
              <mxPoint x="-32.4" y="-413.65999999999997" />
              <mxPoint x="-32.4" y="-413.65999999999997" />
              <mxPoint x="-12.4" y="-423.65999999999997" />
              <mxPoint x="-22.4" y="-403.65999999999997" />
              <mxPoint x="-42.4" y="-333.65999999999997" />
              <mxPoint x="-32.4" y="-313.65999999999997" />
            </Array>
          </mxGeometry>
        </mxCell>
        <mxCell id="dvMq7z_w7fG76Abtl-HF-428" value="" style="fontSize=12;html=1;endArrow=ERzeroToMany;startArrow=ERzeroToOne;rounded=0;entryX=0.497;entryY=1.044;entryDx=0;entryDy=0;entryPerimeter=0;exitX=0.474;exitY=0.007;exitDx=0;exitDy=0;endSize=10;startSize=10;strokeWidth=2;exitPerimeter=0;fontFamily=Comic Sans MS;" parent="1" source="dvMq7z_w7fG76Abtl-HF-269" target="dvMq7z_w7fG76Abtl-HF-408" edge="1">
          <mxGeometry width="100" height="100" relative="1" as="geometry">
            <mxPoint x="-249.67" y="50" as="sourcePoint" />
            <mxPoint x="-250.67" y="-80" as="targetPoint" />
          </mxGeometry>
        </mxCell>
        <mxCell id="dvMq7z_w7fG76Abtl-HF-429" value="" style="fontSize=12;html=1;endArrow=ERzeroToMany;startArrow=ERzeroToOne;rounded=0;entryX=1;entryY=0.5;entryDx=0;entryDy=0;exitX=-0.006;exitY=-0.133;exitDx=0;exitDy=0;endSize=10;startSize=10;strokeWidth=2;exitPerimeter=0;fontFamily=Comic Sans MS;" parent="1" source="dvMq7z_w7fG76Abtl-HF-99" target="dvMq7z_w7fG76Abtl-HF-244" edge="1">
          <mxGeometry width="100" height="100" relative="1" as="geometry">
            <mxPoint x="391" y="59" as="sourcePoint" />
            <mxPoint x="390" y="-30" as="targetPoint" />
          </mxGeometry>
        </mxCell>
        <mxCell id="dvMq7z_w7fG76Abtl-HF-430" value="" style="fontSize=12;html=1;endArrow=ERzeroToMany;startArrow=ERzeroToOne;rounded=0;endSize=10;startSize=10;strokeWidth=2;fontFamily=Comic Sans MS;" parent="1" edge="1">
          <mxGeometry width="100" height="100" relative="1" as="geometry">
            <mxPoint x="-80" y="110" as="sourcePoint" />
            <mxPoint x="40" y="110" as="targetPoint" />
            <Array as="points">
              <mxPoint x="-32.4" y="110" />
            </Array>
          </mxGeometry>
        </mxCell>
        <mxCell id="dvMq7z_w7fG76Abtl-HF-431" value="" style="fontSize=12;html=1;endArrow=ERzeroToMany;startArrow=ERzeroToOne;rounded=0;exitX=1.001;exitY=0.156;exitDx=0;exitDy=0;endSize=10;startSize=10;strokeWidth=2;exitPerimeter=0;entryX=0;entryY=0.5;entryDx=0;entryDy=0;fontFamily=Comic Sans MS;" parent="1" source="dvMq7z_w7fG76Abtl-HF-321" target="dvMq7z_w7fG76Abtl-HF-280" edge="1">
          <mxGeometry width="100" height="100" relative="1" as="geometry">
            <mxPoint x="-530.0000000000001" y="104.65000000000016" as="sourcePoint" />
            <mxPoint x="-411.7999999999997" y="104.33" as="targetPoint" />
            <Array as="points">
              <mxPoint x="-463.59999999999997" y="104.33" />
            </Array>
          </mxGeometry>
        </mxCell>
        <mxCell id="dvMq7z_w7fG76Abtl-HF-432" value="" style="fontSize=12;html=1;endArrow=ERzeroToMany;startArrow=ERzeroToOne;rounded=0;endSize=10;startSize=10;strokeWidth=2;entryX=0.911;entryY=1;entryDx=0;entryDy=0;entryPerimeter=0;fontFamily=Comic Sans MS;" parent="1" target="dvMq7z_w7fG76Abtl-HF-331" edge="1">
          <mxGeometry width="100" height="100" relative="1" as="geometry">
            <mxPoint x="-473.81" y="160" as="sourcePoint" />
            <mxPoint x="-560" y="191.32000000000016" as="targetPoint" />
            <Array as="points">
              <mxPoint x="-430" y="160" />
              <mxPoint x="-430" y="200" />
              <mxPoint x="-430" y="240" />
              <mxPoint x="-510" y="240" />
            </Array>
          </mxGeometry>
        </mxCell>
        <mxCell id="dvMq7z_w7fG76Abtl-HF-434" value="" style="fontSize=12;html=1;endArrow=ERzeroToMany;startArrow=ERzeroToOne;rounded=0;entryX=0.5;entryY=0;entryDx=0;entryDy=0;endSize=10;startSize=10;strokeWidth=2;exitX=0.467;exitY=1.033;exitDx=0;exitDy=0;exitPerimeter=0;fontFamily=Comic Sans MS;" parent="1" source="dvMq7z_w7fG76Abtl-HF-300" target="dvMq7z_w7fG76Abtl-HF-191" edge="1">
          <mxGeometry width="100" height="100" relative="1" as="geometry">
            <mxPoint x="-250" y="280" as="sourcePoint" />
            <mxPoint x="-30" y="270" as="targetPoint" />
          </mxGeometry>
        </mxCell>
        <mxCell id="dvMq7z_w7fG76Abtl-HF-435" value="" style="fontSize=12;html=1;endArrow=ERzeroToMany;startArrow=ERzeroToOne;rounded=0;exitX=0.519;exitY=1.2;exitDx=0;exitDy=0;endSize=10;startSize=10;strokeWidth=2;exitPerimeter=0;entryX=0.552;entryY=-0.003;entryDx=0;entryDy=0;entryPerimeter=0;fontFamily=Comic Sans MS;" parent="1" source="dvMq7z_w7fG76Abtl-HF-89" target="dvMq7z_w7fG76Abtl-HF-140" edge="1">
          <mxGeometry width="100" height="100" relative="1" as="geometry">
            <mxPoint x="640" y="250" as="sourcePoint" />
            <mxPoint x="636" y="300" as="targetPoint" />
          </mxGeometry>
        </mxCell>
        <mxCell id="dvMq7z_w7fG76Abtl-HF-436" value="" style="edgeStyle=entityRelationEdgeStyle;fontSize=12;html=1;endArrow=ERzeroToMany;startArrow=ERzeroToOne;rounded=0;exitX=0;exitY=0.5;exitDx=0;exitDy=0;strokeWidth=2;endSize=10;startSize=10;entryX=1;entryY=0.5;entryDx=0;entryDy=0;fontFamily=Comic Sans MS;" parent="1" source="dvMq7z_w7fG76Abtl-HF-156" target="dvMq7z_w7fG76Abtl-HF-202" edge="1">
          <mxGeometry width="100" height="100" relative="1" as="geometry">
            <mxPoint x="479" y="290" as="sourcePoint" />
            <mxPoint x="-99" y="290" as="targetPoint" />
            <Array as="points">
              <mxPoint x="-33.4" y="110.34000000000003" />
              <mxPoint x="-33.4" y="110.34000000000003" />
              <mxPoint x="-13.4" y="100.34000000000003" />
              <mxPoint x="-120" y="310" />
              <mxPoint x="-99" y="480" />
              <mxPoint x="-50" y="440" />
              <mxPoint x="-23.4" y="120.34000000000003" />
              <mxPoint x="-43.4" y="190.34000000000003" />
              <mxPoint x="-33.4" y="210.34000000000003" />
            </Array>
          </mxGeometry>
        </mxCell>
        <mxCell id="dvMq7z_w7fG76Abtl-HF-438" value="&lt;font style=&quot;font-size: 38px;&quot;&gt;Relational Database Schema&lt;/font&gt;" style="text;html=1;strokeColor=none;fillColor=none;align=center;verticalAlign=middle;whiteSpace=wrap;rounded=0;fontFamily=Comic Sans MS;" parent="1" vertex="1">
          <mxGeometry x="-310" y="-490" width="580" height="90" as="geometry" />
        </mxCell>
        <mxCell id="dvMq7z_w7fG76Abtl-HF-439" value="&lt;font style=&quot;font-weight: normal; font-size: 22px;&quot;&gt;&lt;i&gt;Source:&amp;nbsp;eCommerce Events History in Cosmetics Shop&lt;/i&gt;&lt;/font&gt;" style="text;strokeColor=none;fillColor=none;html=1;fontSize=24;fontStyle=1;verticalAlign=middle;align=center;shadow=1;fontFamily=Comic Sans MS;" parent="1" vertex="1">
          <mxGeometry x="124" y="630" width="700" height="40" as="geometry" />
        </mxCell>
        <mxCell id="PA9W_CRijiU2ItqQf3KF-3" value="" style="fontSize=12;html=1;endArrow=ERzeroToOne;endFill=0;startArrow=ERzeroToOne;rounded=0;startFill=0;endSize=10;startSize=10;strokeWidth=2;" edge="1" parent="1" target="dvMq7z_w7fG76Abtl-HF-352">
          <mxGeometry width="100" height="100" relative="1" as="geometry">
            <mxPoint x="630" y="-40" as="sourcePoint" />
            <mxPoint x="629" y="-180" as="targetPoint" />
          </mxGeometry>
        </mxCell>
      </root>
    </mxGraphModel>
  </diagram>
</mxfile>
